<svg width="45" height="19" viewBox="0 0 45 19" fill="none" xmlns="http://www.w3.org/2000/svg">
<path d="M0.280029 18V1.36001H4.53603V3.79201C5.40003 1.93601 7.06403 0.976013 9.62403 0.976013C11.96 0.976013 13.944 2.09601 15.032 4.11201C16.152 2.09601 17.752 0.976013 20.664 0.976013C24.248 0.976013 27 3.63201 27 7.82401V18H22.68V8.88001C22.68 6.00001 21.304 4.75201 19.352 4.75201C17.336 4.75201 15.96 5.68001 15.96 8.88001V18H11.64V8.88001C11.64 6.00001 10.2 4.75201 8.05603 4.75201C6.23203 4.75201 4.60003 6.00001 4.60003 8.88001V18H0.280029Z" fill="#352F44"/>
<path d="M37.576 18.4486C32.808 18.4486 29 14.5446 29 9.71265C29 4.88065 32.712 1.00865 37.8 0.976646C40.84 0.944646 43.304 2.12865 44.712 4.08065L41.384 6.80065C40.616 5.64865 39.336 4.91265 37.864 4.91265C35.112 4.91265 33.32 7.12065 33.32 9.71265C33.32 12.3046 35.208 14.5126 37.96 14.5126C39.624 14.5126 40.712 13.6806 41.576 12.5286L44.712 15.2486C43.144 17.2646 40.84 18.4486 37.576 18.4486Z" fill="#5C5470"/>
</svg>
