<svg width="382" height="111" viewBox="0 0 382 111" fill="none" xmlns="http://www.w3.org/2000/svg">
<g clip-path="url(#clip0_46_33)">
<mask id="mask0_46_33" style="mask-type:luminance" maskUnits="userSpaceOnUse" x="0" y="0" width="382" height="111">
<path d="M382 0H0V111H382V0Z" fill="white"/>
</mask>
<g mask="url(#mask0_46_33)">
<path d="M112.955 58.2325C115.633 57.5146 117.646 55.9301 119.008 53.4725C119.233 53.0262 119.485 52.6123 119.775 52.2307C120.156 51.7845 120.588 51.5581 121.079 51.5581C121.343 51.5581 121.601 51.6228 121.847 51.7586C122.356 52.069 122.614 52.5217 122.614 53.0973C122.614 53.2978 122.569 53.5242 122.479 53.77C121.789 55.4709 120.776 56.9455 119.433 58.1937C117.291 60.1403 114.775 61.3239 111.878 61.7443C111.452 61.8089 111.02 61.8477 110.574 61.8477" fill="white"/>
<path d="M125.428 65.2755C124.492 65.2755 123.627 65.0038 122.834 64.4541C122.04 63.9044 121.421 63.1283 120.976 62.1258C120.821 61.7249 120.653 61.2527 120.472 60.7159L120.169 59.8105L117.291 62.0547C116.646 62.6109 115.975 63.1283 115.285 63.5939C114.484 64.1307 113.601 64.4541 112.646 64.5641C111.439 64.5641 110.749 63.8074 110.574 62.2875C110.574 61.4856 110.787 60.7353 111.207 60.0433C113.304 56.648 115.988 54.0545 119.266 52.2631C120.801 51.3447 122.44 50.892 124.182 50.892L125.15 50.9566C126.731 51.1377 127.66 51.7586 127.925 52.8322C127.97 52.9874 127.989 53.1362 127.989 53.2655C127.989 53.6665 127.841 54.0222 127.557 54.3197C127.267 54.6237 126.899 54.7724 126.454 54.7724C126.208 54.7724 125.963 54.7142 125.718 54.6043C125.202 54.2679 124.679 54.0998 124.144 54.0998C123.408 54.0998 122.673 54.2679 121.937 54.6043V54.6689C121.937 54.8694 122.06 54.9794 122.305 55.0052C122.395 55.0052 122.473 55.0311 122.537 55.0699C123.092 55.4256 123.408 56.04 123.473 56.9131C123.537 57.8768 123.628 58.8339 123.737 59.7976C123.892 61.2075 124.486 61.9124 125.512 61.9124C125.983 61.9124 126.55 61.7313 127.215 61.3756C128.196 60.7936 129.067 60.0692 129.822 59.1961L130.222 58.7951C130.532 58.4394 130.861 58.129 131.209 57.8703C131.557 57.6116 131.874 57.4822 132.164 57.4822C132.609 57.4822 132.99 57.6439 133.3 57.9673C133.609 58.2907 133.771 58.6399 133.771 59.0215C133.771 59.2931 133.68 59.5583 133.506 59.8234C131.564 62.5074 129.338 64.2471 126.815 65.0556C126.344 65.1914 125.879 65.2561 125.408 65.2561L125.428 65.2755Z" fill="white"/>
<path d="M117.369 88.6034C116.943 88.6034 116.523 88.4999 116.098 88.2994C115.317 87.9437 114.93 87.3293 114.93 86.4562C114.93 85.5831 115.143 84.9493 115.562 84.4125C116.343 83.2484 117.143 82.136 117.969 81.0624C119.911 78.8053 122.027 76.7616 124.324 74.9248C125.976 73.5408 127.421 71.9498 128.673 70.1648C129.409 69.1171 130.157 68.0953 130.912 67.1122C132.003 65.6376 132.674 64.6999 132.919 64.2989L133.119 63.9626L132.448 63.7621C130.777 63.3805 129.938 62.488 129.938 61.0781C130.002 60.1404 130.248 59.2479 130.673 58.3942C132.254 55.5097 134.416 53.2332 137.165 51.5581C138.526 50.685 139.875 50.2517 141.21 50.2517C142.236 50.2517 143.114 50.5427 143.849 51.1248C144.494 51.6357 144.94 52.2889 145.185 53.0715C145.275 53.3625 145.32 53.6665 145.32 53.9769C145.32 54.3132 145.262 54.656 145.153 55.0182C144.862 55.846 144.353 56.2599 143.617 56.2599C142.901 56.2146 142.41 55.8331 142.146 55.1217C142.101 54.9858 142.068 54.8565 142.043 54.7336C142.023 54.6107 141.997 54.5072 141.978 54.4167C141.914 53.8152 141.655 53.5113 141.21 53.5113C141.055 53.5113 140.842 53.5436 140.578 53.6147C139.933 53.8411 139.442 54.0416 139.107 54.2162C137.145 55.3545 135.526 56.8614 134.255 58.7434C134.164 58.8792 134.1 59.0215 134.055 59.1767L134.022 59.3449C134.087 59.3707 134.177 59.3772 134.287 59.3772C134.487 59.3772 134.687 59.2673 134.887 59.0409L138.261 55.8589C139.087 55.0764 139.733 54.6883 140.204 54.6883C140.584 54.6883 140.939 54.8371 141.275 55.1411C141.61 55.445 141.778 55.7943 141.778 56.1952L141.714 56.5639C141.378 57.5017 141.068 58.2195 140.778 58.7111C139.552 60.7224 138.255 62.6756 136.9 64.577C137.036 64.6675 137.132 64.7128 137.203 64.7128C137.294 64.7128 137.371 64.6934 137.436 64.6481C137.5 64.6029 137.552 64.5576 137.584 64.5123C137.616 64.467 139.249 63.387 142.481 61.2592C145.714 59.1379 147.385 58.0514 147.495 58.0061C147.895 57.7345 148.321 57.5017 148.766 57.3012L148.83 57.2688C148.985 57.2042 149.153 57.1653 149.334 57.1653C149.869 57.1653 150.302 57.424 150.637 57.935C150.773 58.1355 150.837 58.3942 150.837 58.7046C150.837 59.0603 150.689 59.4225 150.405 59.7782C149.96 60.1598 149.482 60.5155 148.966 60.8518L146.527 62.4298C144.701 63.5681 142.901 64.7645 141.146 66.0192C133.474 71.5812 129.254 74.9378 128.473 76.076C128.364 76.2118 127.68 77.2014 126.415 79.0575C125.157 80.9136 123.866 82.7698 122.55 84.6195C121.905 85.512 121.214 86.3527 120.479 87.1353C119.808 87.8273 118.988 88.2994 118.001 88.5452C117.775 88.5904 117.569 88.6098 117.369 88.6098V88.6034Z" fill="white"/>
<path d="M160.342 65.2755C159.406 65.2755 158.541 65.0038 157.748 64.4541C156.954 63.9044 156.335 63.1283 155.889 62.1258C155.735 61.7249 155.567 61.2527 155.386 60.7159L155.083 59.8105L152.205 62.0547C151.56 62.6109 150.889 63.1283 150.198 63.5939C149.398 64.1307 148.514 64.4541 147.559 64.5641C146.353 64.5641 145.662 63.8074 145.488 62.2875C145.488 61.4856 145.701 60.7353 146.12 60.0433C148.218 56.648 150.902 54.0545 154.179 52.2631C155.715 51.3447 157.354 50.892 159.096 50.892L160.064 50.9566C161.645 51.1377 162.574 51.7586 162.839 52.8322C162.884 52.9874 162.903 53.1362 162.903 53.2655C162.903 53.6665 162.755 54.0222 162.471 54.3197C162.18 54.6237 161.813 54.7724 161.367 54.7724C161.122 54.7724 160.877 54.7142 160.632 54.6043C160.116 54.2679 159.593 54.0998 159.057 54.0998C158.322 54.0998 157.586 54.2679 156.851 54.6043V54.6689C156.851 54.8694 156.973 54.9794 157.219 55.0052C157.309 55.0052 157.386 55.0311 157.451 55.0699C158.006 55.4256 158.322 56.04 158.386 56.9131C158.451 57.8768 158.541 58.8339 158.651 59.7976C158.806 61.2075 159.399 61.9124 160.425 61.9124C160.896 61.9124 161.464 61.7313 162.129 61.3756C163.11 60.7936 163.981 60.0692 164.736 59.1961L165.136 58.7951C165.445 58.4394 165.774 58.129 166.123 57.8703C166.471 57.6116 166.787 57.4822 167.078 57.4822C167.523 57.4822 167.904 57.6439 168.213 57.9673C168.523 58.2907 168.684 58.6399 168.684 59.0215C168.684 59.2931 168.594 59.5583 168.42 59.8234C166.478 62.5074 164.252 64.2471 161.729 65.0556C161.258 65.1914 160.793 65.2561 160.322 65.2561L160.342 65.2755Z" fill="white"/>
<path d="M170.007 67.6878L169.336 67.6231C168.891 67.5779 168.465 67.5002 168.065 67.3903C166.994 67.054 166.149 66.4655 165.523 65.6312C164.897 64.7969 164.587 63.8268 164.587 62.7338C164.587 60.8324 165.458 58.4071 167.194 55.4579C171.633 48.1951 176.569 41.3137 182.009 34.8075C182.589 34.1155 183.525 33.1001 184.815 31.7549C185.861 30.7266 186.732 30.2157 187.422 30.2157C187.803 30.2157 188.171 30.3515 188.525 30.6167C188.997 31.0176 189.229 31.4898 189.229 32.0266C189.229 32.9643 188.1 35.0792 185.854 38.3646C181.396 44.7997 176.401 50.7885 170.872 56.331C169.581 57.7409 168.652 59.3384 168.097 61.1234C167.988 61.5502 167.93 61.9836 167.93 62.4298C167.93 63.0571 168.104 63.5551 168.446 63.9238C168.794 64.2924 169.278 64.4735 169.897 64.4735L170.233 64.4412C171.259 64.3506 172.22 64.0402 173.111 63.5034C174.272 62.7661 175.15 62.1517 175.75 61.6602C176.466 61.0587 177.202 60.3408 177.956 59.513C178.537 58.9115 179.073 58.3747 179.563 57.9026C179.963 57.5016 180.402 57.1847 180.867 56.9649L180.931 56.9325C181.086 56.8678 181.254 56.829 181.434 56.829C181.815 56.829 182.144 56.9778 182.422 57.2624C182.699 57.5534 182.841 57.9091 182.841 58.3359C182.796 58.9374 182.583 59.4419 182.209 59.8428C180.918 61.2527 179.653 62.5139 178.428 63.6327C177.202 64.7516 175.879 65.6958 174.466 66.4655C173.053 67.2351 171.562 67.6425 170.001 67.6878H170.007Z" fill="white"/>
<path d="M184.351 65.2043H184.015C182.228 65.0944 180.873 64.3765 179.937 63.0571C179.447 62.3393 179.202 61.5179 179.202 60.5801C179.202 59.4613 179.473 58.3101 180.002 57.1265C180.963 55.0052 182.241 53.1297 183.848 51.4934C184.357 50.9825 184.938 50.5751 185.59 50.284C185.88 50.1741 186.138 50.1159 186.357 50.1159C186.867 50.1159 187.306 50.297 187.661 50.6527C188.016 51.0084 188.196 51.4546 188.196 51.9914L188.164 52.4247C187.983 53.162 187.661 53.854 187.196 54.5008C186.19 55.9301 184.99 57.1848 183.583 58.2583C182.867 58.7499 182.512 59.4289 182.512 60.302C182.512 61.2398 182.957 61.7443 183.848 61.8089C184.564 61.8089 185.209 61.7443 185.79 61.6085C188.151 60.8065 189.713 59.9916 190.474 59.1638L190.906 58.5946C191.087 58.2842 191.294 57.9932 191.539 57.7215C191.939 57.3852 192.352 57.2171 192.778 57.2171C193.087 57.2171 193.391 57.3076 193.681 57.4887C194.081 57.7992 194.281 58.1937 194.281 58.6593C194.281 58.9245 194.204 59.2284 194.049 59.5648C193.984 59.7458 193.894 59.9011 193.784 60.0369C193.184 61.0846 192.171 62.0935 190.758 63.0507C189.345 64.0143 187.564 64.6934 185.422 65.0944C185.177 65.1591 184.822 65.1979 184.351 65.1979V65.2043ZM190.339 48.4085C189.868 48.4085 189.474 48.2662 189.151 47.9881C188.829 47.71 188.655 47.3543 188.635 46.9339C188.635 46.4877 188.816 46.0932 189.171 45.7633C189.526 45.4335 189.919 45.2589 190.339 45.2589C190.829 45.2589 191.229 45.4206 191.545 45.7439C191.855 46.0673 192.016 46.4553 192.016 46.9016C191.997 47.3478 191.829 47.71 191.513 47.9881C191.203 48.2662 190.81 48.4085 190.345 48.4085H190.339Z" fill="white"/>
<path d="M235.254 79.5878H235.15C234.215 79.5426 233.434 79.4649 232.808 79.355C227.704 78.1909 223.523 75.5457 220.265 71.413C216.297 66.653 214.309 61.1105 214.309 54.7853L214.374 52.8063C214.619 48.6931 215.419 44.6962 216.78 40.8028C218.723 35.4413 221.839 30.8818 226.143 27.1243C228.35 25.0935 230.905 23.6836 233.802 22.9011C234.447 22.72 235.105 22.6359 235.776 22.6359C236.376 22.6359 236.97 22.7006 237.551 22.8364C240.338 23.3926 242.145 25.0482 242.971 27.7969C243.306 28.961 243.526 30.1316 243.642 31.3151C243.706 32.2982 243.745 33.2942 243.745 34.2966C243.745 35.6354 243.635 36.9871 243.409 38.3517L243.345 38.8885L243.377 39.9621L244.216 39.2248C244.551 38.9337 244.848 38.6556 245.119 38.384C247.997 35.6548 251.107 33.1972 254.449 31.0112C255.785 30.0928 257.25 29.4267 258.831 28.9998C259.256 28.8899 259.676 28.8317 260.102 28.8317C260.818 28.8317 261.495 28.9998 262.141 29.3361C263.502 29.9635 264.212 30.9982 264.283 32.4534V32.8867C264.283 34.6265 263.58 37 262.173 39.9944C261.328 41.6953 260.431 43.3704 259.495 45.0196L257.921 47.9364L257.688 48.3373C257.463 48.6478 257.288 49.0617 257.153 49.5791L259.727 47.5354C261.399 46.1514 263.238 45.0196 265.244 44.1529C266.915 43.4351 268.412 43.0793 269.729 43.0793C271.4 43.0793 272.961 43.5967 274.413 44.638C275.865 45.6792 277.123 46.9016 278.194 48.3115C278.949 49.3139 279.698 50.3358 280.433 51.3641C281.64 53.0197 283.008 54.5266 284.55 55.8913C285.221 56.4927 285.931 57.0295 286.692 57.5017C287.853 58.2195 289.066 58.5752 290.338 58.5752C291.118 58.5752 291.873 58.4653 292.609 58.2389C295.286 57.5211 297.3 55.9365 298.661 53.4789C298.887 53.0327 299.139 52.6188 299.429 52.2372C299.81 51.7909 300.242 51.5646 300.732 51.5646C300.997 51.5646 301.255 51.6293 301.5 51.7651C302.01 52.0755 302.268 52.5282 302.268 53.1038C302.268 53.3043 302.223 53.5307 302.132 53.7764C301.442 55.4774 300.429 56.9519 299.087 58.2001C296.945 60.1468 294.428 61.3304 291.531 61.7507C291.105 61.8154 290.673 61.8542 290.228 61.8542C289.312 61.8542 288.421 61.7119 287.55 61.4209C285.724 60.8194 284.008 59.7911 282.401 58.3359C280.44 56.5703 278.697 54.5913 277.181 52.4053C276.291 51.1765 275.355 50.0059 274.374 48.8871C272.748 47.1861 271.174 46.3389 269.658 46.3389C269.167 46.3389 268.664 46.4036 268.154 46.5394C266.393 47.0503 264.786 47.8458 263.341 48.9194C261.599 50.2129 259.921 51.5775 258.289 53.0068C256.972 54.2356 255.701 55.5097 254.475 56.829L252.572 58.7434C251.81 59.4354 251.043 60.108 250.262 60.7548C249.881 61.0458 249.436 61.1881 248.926 61.1881C248.416 61.1881 248.003 61.0393 247.707 60.7354C247.403 60.4314 247.255 60.0821 247.255 59.6812C247.255 59.5001 247.287 59.3255 247.358 59.1444C247.539 58.6528 247.784 58.1743 248.094 57.7021L254.714 46.9404C256.54 44.0107 258.16 40.9968 259.566 37.8925C259.966 36.9547 260.321 35.9781 260.637 34.9757C260.728 34.6653 260.824 34.3419 260.921 34.0185C261.018 33.6951 261.07 33.3847 261.07 33.0937C261.07 32.8738 260.999 32.6733 260.85 32.5051C260.702 32.337 260.521 32.2529 260.295 32.2529C259.695 32.2529 259.114 32.3305 258.56 32.4857C257.714 32.8221 256.921 33.2424 256.185 33.7598C251.146 37.1358 246.487 41.1909 242.203 45.925C241.512 46.6882 240.99 47.5548 240.628 48.5378C239.093 52.6705 237.073 56.5509 234.576 60.1727C233.886 61.1557 233.118 62.0806 232.266 62.9537C231.75 63.4452 231.163 63.8397 230.492 64.1243C230.201 64.2342 229.924 64.2924 229.653 64.2924C229.163 64.2924 228.73 64.1243 228.35 63.788C227.969 63.4517 227.749 63.0183 227.678 62.4816L227.646 61.9124C227.646 60.7742 228.15 59.3319 229.15 57.5857C231.382 53.7635 233.963 50.2258 236.905 46.9598C237.867 45.8668 238.544 44.6121 238.944 43.2022C239.925 40.1173 240.415 36.9677 240.415 33.7469C240.415 31.8455 240.248 30.261 239.912 28.9869C239.312 26.9302 238.009 25.9019 236.002 25.9019C234.731 25.9666 233.57 26.2512 232.524 26.7427C230.498 27.7063 228.692 28.9869 227.104 30.5973C222.955 34.6847 220.181 39.5934 218.774 45.3106C218.013 48.4408 217.639 51.6034 217.639 54.7983C217.639 55.7619 217.671 56.7191 217.742 57.6827C218.077 61.1493 219.232 64.3312 221.22 67.2351C224.297 71.9951 228.24 74.9442 233.06 76.0825C233.531 76.2183 234.008 76.283 234.499 76.283C234.808 76.283 235.099 76.2506 235.37 76.1795C235.46 76.1601 235.583 76.1472 235.738 76.1472C236.383 76.1472 236.828 76.4835 237.073 77.1496C237.138 77.3307 237.176 77.5183 237.176 77.7187C237.176 78.1909 236.976 78.5983 236.576 78.9605C236.221 79.3615 235.776 79.562 235.241 79.562L235.254 79.5878Z" fill="white"/>
<path d="M305.081 65.2755C304.146 65.2755 303.281 65.0038 302.487 64.4541C301.694 63.9044 301.074 63.1283 300.629 62.1258C300.474 61.7249 300.306 61.2527 300.126 60.7159L299.823 59.8105L296.945 62.0547C296.3 62.6109 295.628 63.1283 294.938 63.5939C294.138 64.1307 293.254 64.4541 292.299 64.5641C291.092 64.5641 290.402 63.8074 290.228 62.2875C290.228 61.4856 290.441 60.7353 290.86 60.0433C292.957 56.648 295.641 54.0545 298.919 52.2631C300.455 51.3447 302.094 50.892 303.836 50.892L304.804 50.9566C306.385 51.1377 307.314 51.7586 307.578 52.8322C307.623 52.9874 307.643 53.1362 307.643 53.2655C307.643 53.6665 307.494 54.0222 307.21 54.3197C306.92 54.6237 306.552 54.7724 306.107 54.7724C305.862 54.7724 305.617 54.7142 305.372 54.6043C304.855 54.2679 304.333 54.0998 303.797 54.0998C303.062 54.0998 302.326 54.2679 301.59 54.6043V54.6689C301.59 54.8694 301.713 54.9794 301.958 55.0052C302.049 55.0052 302.126 55.0311 302.191 55.0699C302.745 55.4256 303.062 56.04 303.126 56.9131C303.191 57.8768 303.281 58.8339 303.391 59.7976C303.546 61.2075 304.139 61.9124 305.165 61.9124C305.636 61.9124 306.204 61.7313 306.869 61.3756C307.849 60.7936 308.72 60.0692 309.475 59.1961L309.875 58.7951C310.185 58.4394 310.514 58.129 310.863 57.8703C311.211 57.6116 311.527 57.4822 311.817 57.4822C312.263 57.4822 312.643 57.6439 312.953 57.9673C313.263 58.2907 313.424 58.6399 313.424 59.0215C313.424 59.2931 313.334 59.5583 313.16 59.8234C311.217 62.5074 308.991 64.2471 306.468 65.0556C305.997 65.1914 305.533 65.2561 305.062 65.2561L305.081 65.2755Z" fill="white"/>
<path d="M320.799 65.2043C320.173 65.2043 319.56 65.062 318.96 64.771C317.844 64.2148 317.289 63.4193 317.289 62.391C317.289 61.99 317.379 61.589 317.554 61.1816C317.979 60.3085 318.78 59.1702 319.96 57.7603L320.593 56.9584C321.438 55.9301 321.864 55.1604 321.864 54.6431C321.864 54.1257 321.483 53.6018 320.728 53.065C320.373 52.7546 319.967 52.4312 319.522 52.0949L318.889 51.6228L318.257 52.5282C317.121 54.6301 315.405 57.0748 313.108 59.8687C312.818 60.2697 312.495 60.6319 312.14 60.9423C311.65 61.2075 311.237 61.3433 310.901 61.3433C310.701 61.3433 310.521 61.298 310.366 61.2075C309.92 60.8518 309.695 60.4379 309.695 59.9657C309.695 59.5842 309.94 59.0603 310.43 58.3877L311.901 56.2728C313.798 53.5889 314.876 51.972 315.147 51.4158L315.579 50.6462C315.934 50.0447 316.115 49.5532 316.115 49.1716C316.115 48.7707 315.889 48.2662 315.444 47.6647C315.153 47.1538 314.986 46.5847 314.94 45.9573L314.908 45.6534C314.908 44.9355 315.244 44.3664 315.915 43.946C316.25 43.7649 316.586 43.6743 316.915 43.6743C317.315 43.6743 317.728 43.7972 318.154 44.043C319.18 44.6703 319.735 45.5434 319.825 46.6558C319.844 47.3478 320.031 47.917 320.373 48.3632C320.722 48.8095 321.135 49.2234 321.625 49.605L322.361 50.2064C322.741 50.4975 323.096 50.7885 323.432 51.0795C324.593 52.1531 325.174 53.3172 325.174 54.5655C325.174 55.4386 324.896 56.331 324.335 57.2494C323.845 58.0126 323.322 58.724 322.761 59.3966L321.961 60.4378C321.896 60.5284 321.812 60.6254 321.709 60.7224C321.606 60.8259 321.522 60.9358 321.444 61.0587C321.367 61.1816 321.328 61.3304 321.328 61.5114L321.361 61.7443C321.715 61.7443 321.941 61.7313 322.032 61.7119L322.767 61.3756C324.012 60.8388 325.322 60.011 326.677 58.8921C326.987 58.6464 327.31 58.3812 327.645 58.1031C327.981 57.825 328.361 57.5728 328.781 57.3464C329.045 57.2106 329.291 57.1459 329.516 57.1459C329.987 57.1459 330.375 57.3594 330.684 57.7862C330.91 58.0514 331.02 58.3553 331.02 58.6917C331.02 58.9827 330.91 59.2931 330.684 59.6294C330.62 59.7394 330.536 59.8299 330.452 59.8946C329.471 60.7871 328.465 61.6408 327.445 62.4427C325.638 63.8074 323.69 64.6869 321.593 65.0879C321.328 65.1526 321.057 65.1914 320.793 65.1914L320.799 65.2043Z" fill="white"/>
<path d="M332.272 65.172C331.51 65.172 330.755 65.0038 330 64.6675C328.484 63.9755 327.729 62.8437 327.729 61.2786C327.729 60.4961 327.852 59.7264 328.097 58.9633C328.523 57.8444 329.032 56.7644 329.632 55.7102C330.413 54.3908 331.207 53.0844 332.007 51.7909C332.878 50.4069 333.459 49.4239 333.749 48.8418L332.413 48.8741C332.213 48.8547 332.001 48.8353 331.781 48.8224C331.555 48.8095 331.381 48.7901 331.246 48.7577C331.11 48.7254 330.936 48.6543 330.71 48.5378C330.174 48.2015 329.91 47.7682 329.91 47.2314C329.91 46.6946 330.174 46.2807 330.71 45.925C331.065 45.7051 331.426 45.5693 331.781 45.524C332.407 45.4788 333.304 45.4594 334.472 45.4594C335.64 45.4594 336.517 44.9484 337.098 43.9201C340.44 38.5328 344.131 33.5723 348.17 29.0386C348.796 28.3919 349.454 27.7904 350.145 27.2278C350.835 26.6716 351.506 26.387 352.151 26.387C352.642 26.387 353.061 26.5681 353.403 26.9238C353.751 27.2795 353.919 27.7646 353.919 28.366C353.919 28.9675 353.693 29.75 353.248 30.6425C351.932 33.3006 350.338 35.7712 348.467 38.0477C347.151 39.6322 345.802 41.1909 344.421 42.7042L342.647 44.7156C342.537 44.8514 342.415 44.9743 342.279 45.0842C342.015 45.3753 341.763 45.6728 341.524 45.9703C341.292 46.2743 341.131 46.6494 341.04 47.1085C340.95 47.5677 340.653 47.8846 340.137 48.0657C339.801 48.2209 339.466 48.3438 339.137 48.4344C337.621 48.8806 335.188 52.2372 331.846 58.4912C331.291 59.61 331.007 60.4249 331.007 60.9358C331.007 61.5179 331.433 61.8089 332.278 61.8089H332.478C333.194 61.8089 334.007 61.6085 334.917 61.2075C334.962 61.2075 334.994 61.1945 335.02 61.1751C336.065 60.7483 336.93 60.2503 337.614 59.6682C338.292 59.0862 338.937 58.4588 339.537 57.7927L341.008 56.1823C341.234 55.9107 341.511 55.6908 341.847 55.5097C342.092 55.3998 342.318 55.3415 342.518 55.3415C342.828 55.3415 343.118 55.445 343.389 55.6455C343.789 55.9365 343.989 56.3052 343.989 56.7514C343.925 57.3076 343.757 57.7927 343.486 58.1937C342.524 59.4872 341.485 60.6707 340.356 61.7313C339.227 62.792 337.917 63.6392 336.427 64.2601C334.44 64.8616 333.059 65.1655 332.278 65.1655L332.272 65.172Z" fill="white"/>
<path d="M344.376 65.2043H344.041C342.253 65.0944 340.898 64.3765 339.963 63.0571C339.472 62.3393 339.227 61.5179 339.227 60.5801C339.227 59.4613 339.498 58.3101 340.027 57.1265C340.989 55.0052 342.266 53.1297 343.873 51.4934C344.383 50.9825 344.963 50.5751 345.615 50.284C345.905 50.1741 346.163 50.1159 346.383 50.1159C346.893 50.1159 347.331 50.297 347.686 50.6527C348.041 51.0084 348.222 51.4546 348.222 51.9914L348.19 52.4247C348.009 53.162 347.686 53.854 347.222 54.5008C346.215 55.9301 345.015 57.1848 343.608 58.2583C342.892 58.7499 342.537 59.4289 342.537 60.302C342.537 61.2398 342.982 61.7443 343.873 61.8089C344.589 61.8089 345.234 61.7443 345.815 61.6085C348.177 60.8065 349.738 59.9916 350.499 59.1638L350.932 58.5946C351.112 58.2842 351.319 57.9932 351.564 57.7215C351.964 57.3852 352.377 57.2171 352.803 57.2171C353.113 57.2171 353.416 57.3076 353.706 57.4887C354.106 57.7992 354.306 58.1937 354.306 58.6593C354.306 58.9245 354.229 59.2284 354.074 59.5648C354.01 59.7458 353.919 59.9011 353.81 60.0369C353.209 61.0846 352.196 62.0935 350.783 63.0507C349.37 64.0143 347.589 64.6934 345.447 65.0944C345.202 65.1591 344.847 65.1979 344.376 65.1979V65.2043ZM350.364 48.4085C349.893 48.4085 349.499 48.2662 349.177 47.9881C348.854 47.71 348.68 47.3543 348.661 46.9339C348.661 46.4877 348.841 46.0932 349.196 45.7633C349.551 45.4335 349.945 45.2589 350.364 45.2589C350.854 45.2589 351.254 45.4206 351.571 45.7439C351.88 46.0673 352.042 46.4553 352.042 46.9016C352.022 47.3478 351.854 47.71 351.538 47.9881C351.229 48.2662 350.835 48.4085 350.37 48.4085H350.364Z" fill="white"/>
<path d="M357.991 65.2043C357.5 65.2043 357.068 65.0168 356.687 64.6352C356.307 64.2536 356.119 63.8332 356.119 63.3611C356.119 63.0895 356.197 62.8114 356.352 62.5203C356.842 61.6278 357.9 59.9593 359.526 57.5275L360.933 55.4127C361.359 54.8759 361.623 54.2938 361.733 53.6729C361.598 53.5371 361.469 53.4725 361.333 53.4725C361.243 53.4725 361.152 53.4983 361.068 53.5371C360.978 53.5824 360.907 53.6212 360.849 53.6535C360.791 53.6859 360.752 53.7182 360.733 53.7376C359.152 54.7207 357.687 55.9947 356.352 57.5599C355.636 58.3165 354.848 59.125 353.977 59.9722C353.622 60.2438 353.242 60.3732 352.842 60.3732C352.551 60.3732 352.261 60.2956 351.971 60.1403C351.59 59.9205 351.403 59.5389 351.403 59.0021C351.493 58.3747 351.693 57.8638 352.003 57.4628C354.364 54.3779 356.855 52.1466 359.462 50.7562C360.397 50.2452 361.391 49.9283 362.436 49.8184C363.262 49.8184 363.94 50.0965 364.475 50.6591C365.011 51.2153 365.275 51.9332 365.275 52.8063C365.275 53.2978 365.211 53.8476 365.075 54.449L364.972 55.1216L365.404 54.8888C365.759 54.7077 366.366 54.2874 367.211 53.6147C367.721 53.2138 368.237 52.8322 368.747 52.4765C369.928 51.6745 370.966 51.2671 371.857 51.2671C372.612 51.2671 373.238 51.5193 373.728 52.0238C374.218 52.5282 374.464 53.1814 374.464 53.9834C374.418 54.7401 374.218 55.639 373.864 56.6674L373.192 58.614C372.702 59.8428 372.457 60.606 372.457 60.8906C372.457 61.0911 372.521 61.2915 372.657 61.492C372.838 61.5826 372.992 61.6278 373.128 61.6278C373.909 61.5179 374.664 61.2139 375.399 60.7224C376.025 60.3214 376.812 59.7264 377.774 58.9439C378.283 58.4976 378.741 58.1355 379.142 57.8574C379.542 57.5793 380 57.4176 380.509 57.3723C381.019 57.3723 381.426 57.6051 381.716 58.0772C381.897 58.323 381.981 58.6011 381.981 58.918C381.981 59.3901 381.677 59.8881 381.077 60.4249C379.335 61.9448 377.574 63.1542 375.793 64.0467C375.102 64.383 374.367 64.6417 373.586 64.8163C373.205 64.9068 372.851 64.9521 372.515 64.9521C371.508 64.9521 370.689 64.6287 370.037 63.982C369.392 63.3352 369.069 62.4751 369.069 61.4015C369.134 60.2826 369.56 58.7305 370.341 56.7385L370.773 55.5291L370.541 55.2963L370.341 55.3997C370.05 55.5356 369.76 55.7102 369.469 55.9365C369.179 56.1629 368.889 56.4087 368.598 56.6738C366.411 58.4588 364.295 60.315 362.243 62.2358L360.468 63.8785C359.442 64.771 358.604 65.2173 357.958 65.2173L357.991 65.2043Z" fill="white"/>
<path d="M55.3678 110.994C85.9466 110.994 110.736 86.1468 110.736 55.4968C110.736 24.8467 85.9466 0 55.3678 0C24.789 0 0 24.8467 0 55.4968C0 86.1468 24.789 110.994 55.3678 110.994Z" fill="white"/>
<path d="M33.92 85.1692H33.8104C32.8038 85.1175 31.9585 85.0334 31.2875 84.917C25.7836 83.6623 21.2798 80.8102 17.7762 76.3541C13.4983 71.2255 11.3625 65.2561 11.3625 58.4394L11.4335 56.3117C11.6981 51.8815 12.5627 47.5677 14.0274 43.3833C16.1179 37.6015 19.4796 32.6927 24.1189 28.6441C26.4998 26.4517 29.2485 24.9383 32.3715 24.0911C33.0683 23.897 33.7781 23.8 34.4943 23.8C35.146 23.8 35.7783 23.8712 36.4042 24.0135C39.4046 24.6149 41.3532 26.3999 42.2436 29.362C42.6049 30.6167 42.8437 31.8778 42.9663 33.1519C43.0372 34.2125 43.076 35.2797 43.076 36.3662C43.076 37.8084 42.9534 39.2701 42.7146 40.7382L42.6437 41.3138L42.6824 42.4714L43.5857 41.6759C43.947 41.3655 44.2698 41.0615 44.5601 40.7705C47.6572 37.8343 51.0124 35.1827 54.6128 32.8221C56.0517 31.8325 57.6261 31.1147 59.3359 30.6555C59.7941 30.5326 60.2457 30.4744 60.7039 30.4744C61.4717 30.4744 62.2074 30.6555 62.9042 31.0177C64.3689 31.6903 65.1366 32.8091 65.2076 34.3742V34.8464C65.2076 36.7219 64.4527 39.2765 62.9364 42.5038C62.0201 44.334 61.0652 46.1384 60.0522 47.9234L58.3616 51.0666L58.11 51.4999C57.8713 51.8362 57.6778 52.2825 57.5358 52.8387L60.3103 50.6333C62.1105 49.1393 64.0913 47.9234 66.2593 46.9857C68.0596 46.216 69.6727 45.828 71.0857 45.828C72.8859 45.828 74.57 46.3907 76.1315 47.5095C77.693 48.6284 79.048 49.9477 80.2029 51.4676C81.0224 52.5476 81.8225 53.6471 82.6161 54.753C83.913 56.538 85.3907 58.1613 87.049 59.6294C87.7717 60.2826 88.5394 60.8582 89.3524 61.3627C90.6042 62.1323 91.914 62.5204 93.2819 62.5204C94.1207 62.5204 94.9402 62.3975 95.7338 62.1582C98.618 61.3886 100.793 59.6812 102.257 57.0295C102.496 56.551 102.773 56.1047 103.083 55.6908C103.49 55.2122 103.961 54.9664 104.49 54.9664C104.78 54.9664 105.051 55.0376 105.316 55.1799C105.871 55.5162 106.142 56.0012 106.142 56.6221C106.142 56.8355 106.096 57.0813 106 57.3464C105.258 59.1767 104.161 60.7677 102.722 62.1129C100.418 64.2084 97.7018 65.4824 94.5788 65.9416C94.1207 66.0128 93.6561 66.0516 93.1722 66.0516C92.185 66.0516 91.2236 65.8964 90.288 65.5794C88.32 64.9262 86.4682 63.8203 84.739 62.2552C82.6226 60.3538 80.7514 58.2195 79.1189 55.8654C78.1575 54.5396 77.151 53.2784 76.0928 52.0755C74.3377 50.2452 72.6472 49.3333 71.0083 49.3333C70.4792 49.3333 69.9372 49.4045 69.3888 49.5468C67.4918 50.103 65.7625 50.9566 64.201 52.1078C62.3299 53.5048 60.5103 54.9729 58.7617 56.5121C57.3422 57.838 55.9744 59.2091 54.6516 60.6319L52.5997 62.6885C51.7802 63.4387 50.9543 64.1566 50.1155 64.8551C49.709 65.1655 49.2252 65.3272 48.6767 65.3272C48.1283 65.3272 47.6831 65.1655 47.3604 64.8422C47.0378 64.5188 46.8764 64.1372 46.8764 63.7039C46.8764 63.5099 46.9151 63.3159 46.9861 63.1283C47.1797 62.598 47.4442 62.0806 47.7797 61.5761L54.9161 49.9801C56.884 46.824 58.6262 43.5773 60.1425 40.2272C60.5748 39.2183 60.9619 38.1706 61.2975 37.0841C61.3943 36.7478 61.4975 36.405 61.6072 36.0558C61.7169 35.7065 61.7685 35.3767 61.7685 35.0598C61.7685 34.8205 61.6911 34.6071 61.5362 34.426C61.3814 34.2449 61.1813 34.1543 60.9426 34.1543C60.2909 34.1543 59.6715 34.2384 59.0714 34.4066C58.1552 34.7687 57.3035 35.2279 56.5098 35.7777C51.0769 39.4123 46.057 43.7843 41.45 48.8871C40.7079 49.7084 40.1401 50.6462 39.7594 51.7069C38.1012 56.1629 35.9267 60.3409 33.2361 64.2407C32.4941 65.3013 31.6617 66.2973 30.7519 67.2351C30.197 67.7654 29.5647 68.1858 28.842 68.5027C28.5323 68.6256 28.229 68.6838 27.9387 68.6838C27.4096 68.6838 26.9386 68.5027 26.5321 68.1405C26.1256 67.7784 25.8804 67.3127 25.8094 66.7306L25.7707 66.1162C25.7707 64.8874 26.3127 63.3353 27.3902 61.4597C29.7905 57.34 32.578 53.5242 35.7526 50.0124C36.785 48.8353 37.5205 47.4837 37.9528 45.9703C39.011 42.646 39.5401 39.2507 39.5401 35.7841C39.5401 33.7404 39.3594 32.0266 38.9981 30.6555C38.3464 28.4436 36.9462 27.3312 34.7847 27.3312C33.4168 27.4024 32.165 27.7063 31.0358 28.2367C28.8485 29.2715 26.9063 30.6555 25.1964 32.3887C20.7249 36.793 17.7375 42.0834 16.2212 48.2468C15.4017 51.6163 14.9952 55.0246 14.9952 58.4653C14.9952 59.5001 15.0339 60.5349 15.1049 61.5697C15.4663 65.3013 16.7116 68.7355 18.8537 71.8658C22.1703 76.9944 26.4224 80.1699 31.6101 81.3987C32.1134 81.541 32.6296 81.6186 33.1587 81.6186C33.4942 81.6186 33.8104 81.5798 34.0943 81.5086C34.191 81.4828 34.3201 81.4698 34.4879 81.4698C35.1847 81.4698 35.6622 81.832 35.9267 82.5564C35.9977 82.7504 36.0364 82.9509 36.0364 83.1708C36.0364 83.6752 35.8235 84.1215 35.3847 84.5095C34.9976 84.9428 34.5201 85.1563 33.9459 85.1563L33.92 85.1692Z" fill="#07002C"/>
</g>
</g>
<defs>
<clipPath id="clip0_46_33">
<rect width="382" height="111" fill="white"/>
</clipPath>
</defs>
</svg>
