<svg width="1417" height="952" viewBox="0 0 1417 952" fill="none" xmlns="http://www.w3.org/2000/svg">
	<g clip-path="url(#clip0_3_119)">
		<path d="M1629 921.909H0V924.293H1629V921.909Z" fill="#29314D" fill-opacity="0.05" />
		<path d="M1629 867.609H0V869.993H1629V867.609Z" fill="#29314D" fill-opacity="0.05" />
		<path d="M1629 813.31H0V815.693H1629V813.31Z" fill="#29314D" fill-opacity="0.05" />
		<path d="M1629 759.01H0V761.393H1629V759.01Z" fill="#29314D" fill-opacity="0.05" />
		<path d="M1629 704.71H0V707.094H1629V704.71Z" fill="#29314D" fill-opacity="0.05" />
		<path d="M1629 650.41H0V652.794H1629V650.41Z" fill="#29314D" fill-opacity="0.05" />
		<path d="M1629 596.111H0V598.494H1629V596.111Z" fill="#29314D" fill-opacity="0.05" />
		<path d="M1629 541.805H0V544.189H1629V541.805Z" fill="#29314D" fill-opacity="0.05" />
		<path d="M1629 487.506H0V489.889H1629V487.506Z" fill="#29314D" fill-opacity="0.05" />
		<path d="M1629 433.206H0V435.59H1629V433.206Z" fill="#29314D" fill-opacity="0.05" />
		<path d="M1629 378.906H0V381.29H1629V378.906Z" fill="#29314D" fill-opacity="0.05" />
		<path d="M1629 324.607H0V326.99H1629V324.607Z" fill="#29314D" fill-opacity="0.05" />
		<path d="M1629 270.307H0V272.69H1629V270.307Z" fill="#29314D" fill-opacity="0.05" />
		<path d="M1629 216.007H0V218.391H1629V216.007Z" fill="#29314D" fill-opacity="0.05" />
		<path d="M1629 161.707H0V164.091H1629V161.707Z" fill="#29314D" fill-opacity="0.05" />
		<path d="M1629 107.408H0V109.791H1629V107.408Z" fill="#29314D" fill-opacity="0.05" />
		<path d="M1629 53.1079H0V55.4915H1629V53.1079Z" fill="#29314D" fill-opacity="0.05" />
		<path d="M1412.99 0H1410.61V1086H1412.99V0Z" fill="#29314D" fill-opacity="0.05" />
		<path d="M1358.7 0H1356.31V1086H1358.7V0Z" fill="#29314D" fill-opacity="0.05" />
		<path d="M1304.4 0H1302.01V1086H1304.4V0Z" fill="#29314D" fill-opacity="0.05" />
		<path d="M1250.09 0H1247.71V1086H1250.09V0Z" fill="#29314D" fill-opacity="0.05" />
		<path d="M1195.8 0H1193.41V1086H1195.8V0Z" fill="#29314D" fill-opacity="0.05" />
		<path d="M1141.49 0H1139.11V1086H1141.49V0Z" fill="#29314D" fill-opacity="0.05" />
		<path d="M1087.19 0H1084.81V1086H1087.19V0Z" fill="#29314D" fill-opacity="0.05" />
		<path d="M1032.9 0H1030.51V1086H1032.9V0Z" fill="#29314D" fill-opacity="0.05" />
		<path d="M978.593 0H976.206V1086H978.593V0Z" fill="#29314D" fill-opacity="0.05" />
		<path d="M924.295 0H921.908V1086H924.295V0Z" fill="#29314D" fill-opacity="0.05" />
		<path d="M869.997 0H867.61V1086H869.997V0Z" fill="#29314D" fill-opacity="0.05" />
		<path d="M815.694 0H813.306V1086H815.694V0Z" fill="#29314D" fill-opacity="0.05" />
		<path d="M761.396 0H759.008V1086H761.396V0Z" fill="#29314D" fill-opacity="0.05" />
		<path d="M707.092 0H704.705V1086H707.092V0Z" fill="#29314D" fill-opacity="0.05" />
		<path d="M652.794 0H650.407V1086H652.794V0Z" fill="#29314D" fill-opacity="0.05" />
		<path d="M598.496 0H596.109V1086H598.496V0Z" fill="#29314D" fill-opacity="0.05" />
		<path d="M544.193 0H541.805V1086H544.193V0Z" fill="#29314D" fill-opacity="0.05" />
		<path d="M489.895 0H487.507V1086H489.895V0Z" fill="#29314D" fill-opacity="0.05" />
		<path d="M435.597 0H433.209V1086H435.597V0Z" fill="#29314D" fill-opacity="0.05" />
		<path d="M381.293 0H378.906V1086H381.293V0Z" fill="#29314D" fill-opacity="0.05" />
		<path d="M326.995 0H324.608V1086H326.995V0Z" fill="#29314D" fill-opacity="0.05" />
		<path d="M272.692 0H270.305V1086H272.692V0Z" fill="#29314D" fill-opacity="0.05" />
		<path d="M218.394 0H216.007V1086H218.394V0Z" fill="#29314D" fill-opacity="0.05" />
		<path d="M164.096 0H161.709V1086H164.096V0Z" fill="#29314D" fill-opacity="0.05" />
		<path d="M109.792 0H107.405V1086H109.792V0Z" fill="#29314D" fill-opacity="0.05" />
		<path d="M55.4943 0H53.1071V1086H55.4943V0Z" fill="#29314D" fill-opacity="0.05" />
	</g>
	<defs>
		<clipPath id="clip0_3_119">
			<rect width="1629" height="1086" fill="white" />
		</clipPath>
	</defs>
</svg>
