<svg width="1440" height="811" viewBox="0 0 1440 811" fill="none" xmlns="http://www.w3.org/2000/svg">
  <g clip-path="url(#clip0_1_10)">
    <g clip-path="url(#clip1_1_10)">
      <path
        d="M-226.467 142.996C68.0327 101.996 349.533 46.496 414.033 142.996C498.033 279.996 72.0327 585.996 257.533 637.496C443.033 688.996 997.033 740.996 1024.03 590.496C1051.03 439.996 599.533 561.496 682.033 375.996C764.533 190.496 1065.53 -218.004 1187.03 282.996C1284.23 683.796 1524.2 511.996 1632.03 375.996"
        stroke="black" stroke-width="5" />
    </g>
    <g filter="url(#filter0_d_1_10)">
      <rect x="80" y="46" width="235" height="291" rx="20" fill="#F7BECA" />
      <rect x="80.5" y="46.5" width="234" height="290" rx="19.5" stroke="black" />
    </g>
    <g filter="url(#filter1_d_1_10)">
      <rect x="260.54" y="230.451" width="235" height="291" rx="20" transform="rotate(10 260.54 230.451)"
        fill="white" />
      <rect x="260.946" y="231.03" width="234" height="290" rx="19.5" transform="rotate(10 260.946 231.03)"
        stroke="black" />
    </g>
    <path
      d="M256.297 383.864L260.784 359.066L269.676 360.676L270.689 383.176L271.327 383.291L275.238 361.682L279.843 362.515L275.355 387.313L266.464 385.704L265.45 363.203L264.813 363.088L260.902 384.697L256.297 383.864ZM288.441 390.193C286.693 389.877 285.187 389.238 283.922 388.277C282.656 387.317 281.744 386.091 281.185 384.599C280.626 383.108 280.517 381.417 280.859 379.528L280.961 378.961C281.303 377.072 281.997 375.527 283.044 374.326C284.091 373.125 285.375 372.297 286.896 371.84C288.418 371.384 290.052 371.314 291.8 371.63C293.548 371.947 295.054 372.585 296.319 373.546C297.584 374.506 298.497 375.732 299.056 377.224C299.615 378.715 299.724 380.406 299.382 382.295L299.279 382.862C298.938 384.751 298.243 386.296 297.197 387.497C296.15 388.698 294.866 389.526 293.345 389.983C291.823 390.439 290.188 390.509 288.441 390.193ZM289.159 386.225C290.529 386.473 291.741 386.241 292.797 385.53C293.857 384.795 294.536 383.601 294.835 381.948L294.899 381.593C295.198 379.94 294.978 378.596 294.239 377.559C293.528 376.504 292.475 375.85 291.082 375.598C289.712 375.35 288.497 375.594 287.438 376.329C286.382 377.04 285.705 378.222 285.406 379.875L285.341 380.23C285.042 381.883 285.26 383.239 285.995 384.299C286.735 385.335 287.789 385.977 289.159 386.225ZM309.069 393.926C306.778 393.511 304.99 392.675 303.705 391.419C302.421 390.162 301.792 388.584 301.818 386.687L306.119 386.368C306.135 387.224 306.289 387.923 306.582 388.464C306.898 389.009 307.32 389.439 307.848 389.754C308.404 390.049 309.025 390.259 309.71 390.383C310.749 390.571 311.548 390.533 312.109 390.269C312.673 389.98 313.004 389.565 313.102 389.022C313.201 388.478 313.039 388.022 312.618 387.654C312.202 387.261 311.491 386.876 310.486 386.499L309.526 386.143C308.341 385.684 307.277 385.163 306.334 384.577C305.395 383.968 304.685 383.242 304.204 382.399C303.722 381.556 303.586 380.556 303.795 379.398C304.112 377.651 304.991 376.432 306.433 375.742C307.879 375.028 309.641 374.859 311.719 375.235C313.68 375.59 315.23 376.322 316.371 377.43C317.512 378.539 318.154 379.838 318.3 381.328L313.924 381.853C313.898 380.922 313.623 380.214 313.101 379.729C312.603 379.248 311.929 378.931 311.078 378.777C310.228 378.624 309.551 378.66 309.047 378.885C308.547 379.088 308.25 379.448 308.156 379.968C308.053 380.535 308.212 381.003 308.633 381.372C309.059 381.717 309.66 382.033 310.437 382.32L311.397 382.677C312.677 383.152 313.812 383.687 314.802 384.28C315.82 384.855 316.57 385.564 317.051 386.407C317.561 387.231 317.704 388.257 317.482 389.485C317.149 391.327 316.217 392.634 314.687 393.406C313.185 394.158 311.312 394.332 309.069 393.926ZM333.117 397.765L330.699 379.182L335.446 380.041L336.93 395.09L337.568 395.205L344.232 381.631L348.979 382.49L340.202 399.048L333.117 397.765ZM353.791 402.019C352.539 401.792 351.456 401.377 350.541 400.772C349.63 400.144 348.954 399.363 348.513 398.43C348.1 397.477 348.003 396.398 348.221 395.194C348.439 393.989 348.904 393.037 349.616 392.337C350.356 391.617 351.27 391.148 352.358 390.931C353.474 390.693 354.694 390.695 356.016 390.934L360.834 391.806L361.013 390.814C361.163 389.987 361.025 389.267 360.599 388.654C360.178 388.016 359.401 387.595 358.267 387.39C357.157 387.189 356.284 387.299 355.646 387.721C355.013 388.118 354.542 388.704 354.231 389.477L350.372 387.352C350.818 386.505 351.414 385.772 352.16 385.151C352.935 384.511 353.882 384.06 355.002 383.799C356.151 383.519 357.48 383.516 358.992 383.79C361.306 384.208 363.032 385.118 364.169 386.519C365.305 387.92 365.675 389.718 365.277 391.915L364.092 398.468C363.963 399.177 364.23 399.591 364.891 399.711L366.308 399.967L365.641 403.651L362.666 403.113C361.792 402.955 361.11 402.612 360.62 402.084C360.13 401.556 359.95 400.938 360.078 400.23L360.084 400.194L359.411 400.073C359.265 400.339 358.984 400.678 358.568 401.091C358.156 401.48 357.564 401.787 356.792 402.013C356.019 402.239 355.019 402.241 353.791 402.019ZM355.224 398.547C356.476 398.773 357.553 398.614 358.456 398.071C359.387 397.507 359.958 396.647 360.167 395.49L360.231 395.136L355.732 394.322C354.906 394.172 354.224 394.232 353.688 394.5C353.151 394.769 352.826 395.222 352.71 395.86C352.595 396.498 352.749 397.062 353.172 397.553C353.595 398.044 354.279 398.376 355.224 398.547ZM368.905 404.242L373.392 379.445L377.856 380.252L373.368 405.049L368.905 404.242ZM386.231 407.889C384.483 407.573 383.003 406.927 381.789 405.951C380.603 404.956 379.754 403.717 379.242 402.234C378.758 400.732 378.682 399.06 379.016 397.218L379.093 396.793C379.426 394.951 380.081 393.423 381.056 392.209C382.036 390.972 383.254 390.107 384.709 389.614C386.168 389.098 387.771 388.998 389.519 389.314C391.243 389.626 392.672 390.287 393.806 391.297C394.945 392.284 395.745 393.526 396.205 395.024C396.67 396.498 396.74 398.133 396.415 399.928L396.14 401.451L383.351 399.137C383.181 400.35 383.452 401.411 384.165 402.321C384.879 403.23 385.85 403.796 387.078 404.018C388.329 404.245 389.299 404.14 389.988 403.703C390.677 403.267 391.235 402.746 391.661 402.14L394.964 404.714C394.522 405.268 393.916 405.853 393.146 406.47C392.404 407.067 391.466 407.532 390.333 407.863C389.204 408.171 387.837 408.18 386.231 407.889ZM383.989 395.813L392.208 397.3C392.297 396.268 392.031 395.378 391.41 394.632C390.813 393.89 389.936 393.414 388.778 393.204C387.574 392.986 386.562 393.12 385.742 393.606C384.923 394.092 384.338 394.828 383.989 395.813ZM405.404 411.139C404.034 410.892 402.885 410.367 401.957 409.565C401.057 408.743 400.424 407.726 400.058 406.514C399.692 405.301 399.64 403.974 399.9 402.534L401.798 392.048L406.261 392.856L404.428 402.987C404.189 404.31 404.328 405.359 404.846 406.136C405.387 406.917 406.26 407.416 407.465 407.634C408.835 407.882 409.979 407.626 410.897 406.865C411.819 406.081 412.428 404.874 412.723 403.245L414.338 394.318L418.802 395.125L415.622 412.696L411.229 411.901L411.646 409.598L411.008 409.483C410.618 410.022 409.982 410.505 409.1 410.93C408.218 411.356 406.986 411.426 405.404 411.139ZM420.589 413.595L423.769 396.024L428.161 396.819L427.802 398.803L428.44 398.918C428.828 398.257 429.347 397.814 429.997 397.59C430.671 397.371 431.409 397.334 432.212 397.479L434.338 397.864L433.62 401.831L431.424 401.434C430.29 401.229 429.302 401.367 428.458 401.848C427.619 402.306 427.087 403.161 426.86 404.413L425.052 414.402L420.589 413.595ZM441.427 417.878C439.136 417.463 437.348 416.628 436.063 415.371C434.779 414.114 434.15 412.537 434.176 410.639L438.477 410.32C438.493 411.176 438.647 411.875 438.94 412.416C439.256 412.961 439.678 413.391 440.206 413.706C440.762 414.002 441.383 414.211 442.068 414.335C443.107 414.523 443.907 414.485 444.467 414.221C445.031 413.933 445.362 413.517 445.461 412.974C445.559 412.431 445.397 411.975 444.976 411.606C444.56 411.213 443.849 410.828 442.844 410.451L441.884 410.095C440.699 409.636 439.635 409.115 438.692 408.529C437.753 407.921 437.043 407.194 436.562 406.351C436.08 405.508 435.944 404.508 436.153 403.351C436.47 401.603 437.349 400.384 438.791 399.694C440.237 398.98 441.999 398.811 444.077 399.187C446.038 399.542 447.588 400.274 448.729 401.382C449.87 402.491 450.513 403.791 450.658 405.28L446.282 405.805C446.256 404.874 445.981 404.166 445.459 403.681C444.961 403.201 444.287 402.883 443.436 402.73C442.586 402.576 441.909 402.612 441.405 402.837C440.905 403.04 440.608 403.401 440.514 403.92C440.411 404.487 440.57 404.955 440.991 405.324C441.417 405.669 442.018 405.985 442.795 406.272L443.755 406.629C445.035 407.104 446.17 407.639 447.16 408.233C448.178 408.807 448.928 409.516 449.409 410.359C449.919 411.183 450.062 412.209 449.84 413.437C449.507 415.279 448.575 416.586 447.045 417.358C445.543 418.111 443.67 418.284 441.427 417.878Z"
      fill="#29314D" />
    <g filter="url(#filter2_d_1_10)">
      <rect x="707.528" width="235" height="291" rx="20" transform="rotate(20 707.528 0)" fill="white" />
      <rect x="707.827" y="0.640856" width="234" height="290" rx="19.5" transform="rotate(20 707.827 0.640856)"
        stroke="black" />
    </g>
    <path
      d="M673.968 149.73L682.519 126.025L692.813 129.738C694.303 130.276 695.508 131.004 696.427 131.922C697.346 132.84 697.939 133.884 698.206 135.052C698.474 136.22 698.376 137.447 697.911 138.734L697.765 139.14C697.252 140.563 696.498 141.592 695.503 142.228C694.508 142.864 693.441 143.206 692.301 143.254L692.081 143.864C692.967 144.235 693.553 144.803 693.838 145.569C694.131 146.313 694.107 147.159 693.765 148.107L690.967 155.862L686.497 154.249L689.063 147.138C689.258 146.596 689.27 146.103 689.099 145.659C688.95 145.222 688.548 144.886 687.894 144.65L681.663 142.402L678.438 151.342L673.968 149.73ZM683.129 138.338L688.479 140.268C689.54 140.651 690.466 140.666 691.257 140.314C692.078 139.946 692.66 139.289 693.002 138.341L693.124 138.002C693.466 137.054 693.445 136.192 693.062 135.416C692.686 134.617 691.957 134.022 690.873 133.631L685.523 131.701L683.129 138.338ZM702.982 160.732C701.311 160.129 699.959 159.246 698.924 158.082C697.921 156.903 697.29 155.54 697.032 153.993C696.804 152.431 697.008 150.77 697.643 149.009L697.79 148.602C698.425 146.841 699.325 145.444 700.489 144.409C701.661 143.352 703.005 142.702 704.522 142.458C706.047 142.192 707.645 142.36 709.315 142.963C710.963 143.557 712.262 144.447 713.213 145.632C714.171 146.794 714.753 148.152 714.958 149.705C715.171 151.237 714.968 152.86 714.349 154.576L713.824 156.032L701.599 151.622C701.229 152.79 701.32 153.881 701.872 154.897C702.424 155.913 703.287 156.632 704.461 157.056C705.658 157.487 706.632 157.545 707.383 157.23C708.135 156.914 708.772 156.493 709.293 155.967L712.122 159.054C711.594 159.527 710.899 160.003 710.037 160.483C709.206 160.949 708.204 161.25 707.031 161.389C705.867 161.505 704.517 161.286 702.982 160.732ZM702.781 148.451L710.638 151.285C710.897 150.282 710.783 149.36 710.295 148.521C709.83 147.69 709.044 147.074 707.938 146.675C706.786 146.26 705.766 146.224 704.877 146.566C703.988 146.909 703.289 147.537 702.781 148.451ZM707.255 140.612L711.569 136.504L716.377 138.239L710.98 141.956L707.255 140.612ZM717.259 165.346L722.047 152.071L717.781 150.532L719.051 147.01L723.318 148.55L724.442 145.434C724.857 144.283 725.526 143.491 726.447 143.058C727.399 142.61 728.429 142.586 729.535 142.985L733.937 144.573L732.667 148.095L729.755 147.044C729.122 146.816 728.684 147.041 728.44 147.718L727.585 150.089L731.987 151.677L730.717 155.199L726.314 153.611L721.526 166.885L717.259 165.346ZM736.151 172.697C734.481 172.094 733.128 171.211 732.094 170.047C731.09 168.869 730.459 167.506 730.201 165.958C729.974 164.396 730.177 162.735 730.813 160.974L730.959 160.568C731.594 158.807 732.494 157.409 733.658 156.375C734.83 155.318 736.175 154.667 737.692 154.424C739.216 154.157 740.814 154.325 742.485 154.928C744.133 155.522 745.432 156.412 746.382 157.597C747.341 158.759 747.923 160.117 748.128 161.671C748.341 163.202 748.138 164.825 747.519 166.541L746.993 167.997L734.769 163.587C734.398 164.755 734.489 165.847 735.041 166.862C735.594 167.878 736.457 168.597 737.631 169.021C738.827 169.453 739.801 169.511 740.553 169.195C741.305 168.879 741.941 168.458 742.463 167.932L745.291 171.019C744.763 171.492 744.068 171.968 743.206 172.448C742.375 172.914 741.373 173.216 740.201 173.354C739.036 173.47 737.687 173.251 736.151 172.697ZM735.951 160.416L743.807 163.25C744.067 162.247 743.953 161.326 743.465 160.486C742.999 159.655 742.213 159.04 741.107 158.641C739.956 158.225 738.936 158.189 738.047 158.532C737.158 158.874 736.459 159.503 735.951 160.416ZM740.424 152.577L744.738 148.469L749.547 150.204L744.149 153.921L740.424 152.577ZM748.214 176.513L754.273 159.716L758.472 161.231L757.788 163.127L758.397 163.347C758.89 162.759 759.476 162.409 760.154 162.297C760.855 162.193 761.589 162.279 762.357 162.556L764.389 163.289L763.021 167.081L760.921 166.324C759.837 165.933 758.84 165.905 757.928 166.239C757.025 166.551 756.357 167.306 755.925 168.502L752.481 178.052L748.214 176.513ZM768.527 184.376C766.857 183.774 765.504 182.89 764.47 181.726C763.466 180.548 762.835 179.185 762.577 177.637C762.349 176.075 762.553 174.414 763.188 172.653L763.335 172.247C763.97 170.486 764.87 169.088 766.034 168.054C767.206 166.997 768.551 166.346 770.067 166.103C771.592 165.836 773.19 166.004 774.861 166.607C776.509 167.202 777.808 168.091 778.758 169.276C779.717 170.438 780.298 171.796 780.503 173.35C780.716 174.881 780.514 176.504 779.895 178.22L779.369 179.676L767.144 175.266C766.774 176.434 766.865 177.526 767.417 178.541C767.969 179.557 768.832 180.277 770.006 180.7C771.203 181.132 772.177 181.19 772.929 180.874C773.681 180.558 774.317 180.137 774.839 179.611L777.667 182.698C777.139 183.171 776.444 183.647 775.582 184.127C774.751 184.593 773.749 184.895 772.577 185.033C771.412 185.149 770.062 184.93 768.527 184.376ZM768.327 172.095L776.183 174.93C776.443 173.926 776.329 173.005 775.841 172.165C775.375 171.334 774.589 170.719 773.483 170.32C772.332 169.904 771.311 169.868 770.422 170.211C769.533 170.553 768.835 171.182 768.327 172.095ZM780.59 188.192L786.649 171.395L790.848 172.91L790.054 175.111L790.663 175.331C791.146 174.842 791.853 174.472 792.786 174.221C793.726 173.948 794.953 174.085 796.465 174.63C797.775 175.103 798.805 175.819 799.556 176.778C800.337 177.724 800.808 178.825 800.967 180.081C801.134 181.315 800.965 182.632 800.46 184.032L796.844 194.055L792.577 192.516L796.071 182.831C796.527 181.567 796.553 180.505 796.149 179.644C795.768 178.792 795.001 178.159 793.85 177.743C792.54 177.271 791.366 177.345 790.326 177.965C789.294 178.562 788.497 179.639 787.935 181.197L784.856 189.731L780.59 188.192ZM809.176 199.04C807.551 198.453 806.194 197.581 805.107 196.423C804.041 195.274 803.357 193.917 803.054 192.353C802.75 190.79 802.929 189.093 803.588 187.265L803.759 186.791C804.419 184.962 805.365 183.543 806.596 182.533C807.828 181.523 809.221 180.915 810.775 180.711C812.351 180.514 813.952 180.709 815.577 181.295C817.18 181.873 818.456 182.652 819.403 183.632C820.351 184.612 820.996 185.724 821.337 186.97C821.71 188.202 821.785 189.479 821.562 190.802L817.113 190.192C817.267 189.482 817.284 188.799 817.164 188.143C817.043 187.488 816.746 186.896 816.273 186.368C815.823 185.848 815.169 185.434 814.311 185.124C813.453 184.815 812.605 184.726 811.766 184.857C810.959 184.974 810.218 185.332 809.542 185.93C808.898 186.514 808.384 187.337 808.002 188.398L807.88 188.736C807.497 189.797 807.363 190.77 807.478 191.653C807.624 192.522 807.966 193.271 808.505 193.899C809.074 194.512 809.788 194.974 810.646 195.283C811.933 195.748 813.022 195.771 813.913 195.352C814.834 194.919 815.581 194.193 816.152 193.175L819.929 195.647C819.204 196.738 818.301 197.65 817.221 198.382C816.171 199.101 814.968 199.534 813.613 199.683C812.258 199.832 810.779 199.618 809.176 199.04ZM828.781 206.112C827.111 205.509 825.758 204.626 824.724 203.462C823.72 202.283 823.089 200.92 822.831 199.373C822.604 197.811 822.807 196.15 823.443 194.389L823.589 193.982C824.224 192.221 825.124 190.824 826.288 189.789C827.46 188.732 828.805 188.082 830.322 187.838C831.846 187.572 833.444 187.74 835.115 188.343C836.763 188.937 838.062 189.827 839.012 191.012C839.971 192.174 840.553 193.532 840.758 195.085C840.971 196.617 840.768 198.24 840.149 199.956L839.623 201.412L827.399 197.002C827.028 198.17 827.119 199.261 827.671 200.277C828.224 201.293 829.087 202.012 830.261 202.436C831.457 202.867 832.431 202.925 833.183 202.61C833.935 202.294 834.571 201.873 835.093 201.347L837.921 204.434C837.393 204.907 836.698 205.383 835.836 205.863C835.005 206.329 834.003 206.631 832.831 206.769C831.666 206.885 830.317 206.666 828.781 206.112ZM828.581 193.831L836.437 196.665C836.697 195.662 836.583 194.74 836.095 193.901C835.629 193.07 834.843 192.455 833.737 192.055C832.586 191.64 831.566 191.604 830.677 191.946C829.788 192.289 829.089 192.917 828.581 193.831ZM847.649 212.918C845.459 212.128 843.835 211.006 842.777 209.553C841.72 208.1 841.362 206.44 841.703 204.573L845.998 204.975C845.871 205.822 845.907 206.536 846.105 207.118C846.326 207.708 846.671 208.202 847.139 208.601C847.639 208.985 848.216 209.295 848.87 209.532C849.864 209.89 850.658 209.985 851.255 209.818C851.859 209.627 852.255 209.273 852.442 208.753C852.63 208.234 852.546 207.758 852.193 207.324C851.847 206.867 851.21 206.37 850.282 205.831L849.395 205.32C848.302 204.67 847.34 203.979 846.507 203.245C845.683 202.488 845.104 201.654 844.769 200.742C844.435 199.831 844.467 198.822 844.866 197.716C845.469 196.045 846.538 194.989 848.075 194.549C849.62 194.085 851.386 194.212 853.373 194.929C855.246 195.605 856.653 196.584 857.594 197.868C858.534 199.151 858.952 200.539 858.847 202.032L854.445 201.822C854.574 200.899 854.421 200.155 853.987 199.59C853.576 199.033 852.964 198.608 852.151 198.315C851.338 198.022 850.664 197.945 850.13 198.084C849.603 198.2 849.25 198.506 849.071 199.003C848.875 199.545 848.955 200.033 849.308 200.466C849.67 200.878 850.211 201.289 850.929 201.702L851.816 202.213C852.999 202.895 854.029 203.611 854.907 204.361C855.815 205.097 856.436 205.921 856.771 206.832C857.136 207.729 857.107 208.765 856.684 209.939C856.048 211.7 854.912 212.834 853.275 213.34C851.669 213.832 849.793 213.692 847.649 212.918Z"
      fill="#29314D" />
    <g filter="url(#filter3_d_1_10)">
      <rect x="1168.26" y="396.534" width="235" height="291" rx="20" transform="rotate(-20 1168.26 396.534)"
        fill="white" />
      <rect x="1168.9" y="396.833" width="234" height="290" rx="19.5" transform="rotate(-20 1168.9 396.833)"
        stroke="black" />
    </g>
    <path
      d="M1278.37 512.5C1275.44 513.567 1272.82 513.601 1270.52 512.601C1268.21 511.578 1266.5 509.545 1265.39 506.5L1263.32 500.817C1262.21 497.772 1262.22 495.126 1263.34 492.878C1264.46 490.608 1266.48 488.94 1269.41 487.872C1272.32 486.814 1274.86 486.797 1277.02 487.824C1279.19 488.82 1280.79 490.705 1281.79 493.479L1281.87 493.682L1277.47 495.282L1277.35 494.944C1276.84 493.546 1276.03 492.539 1274.91 491.925C1273.81 491.302 1272.46 491.281 1270.86 491.864C1269.28 492.439 1268.22 493.375 1267.67 494.673C1267.12 495.971 1267.15 497.455 1267.76 499.124L1269.88 504.942C1270.48 506.589 1271.41 507.744 1272.67 508.408C1273.93 509.049 1275.34 509.083 1276.92 508.508C1278.52 507.925 1279.54 507.043 1279.98 505.862C1280.43 504.65 1280.41 503.356 1279.91 501.981L1279.69 501.372L1284.09 499.771L1284.26 500.245C1285.27 503.019 1285.26 505.498 1284.24 507.682C1283.24 509.835 1281.28 511.441 1278.37 512.5ZM1299.27 504.896C1297.6 505.504 1295.97 505.711 1294.4 505.519C1292.82 505.327 1291.41 504.727 1290.18 503.721C1288.94 502.714 1288 501.309 1287.34 499.505L1287.15 498.964C1286.49 497.159 1286.31 495.475 1286.61 493.91C1286.91 492.346 1287.6 490.983 1288.68 489.822C1289.77 488.661 1291.14 487.777 1292.81 487.17C1294.48 486.562 1296.11 486.355 1297.68 486.547C1299.26 486.739 1300.66 487.339 1301.9 488.345C1303.13 489.351 1304.08 490.757 1304.74 492.561L1304.93 493.102C1305.59 494.906 1305.77 496.591 1305.47 498.155C1305.17 499.72 1304.48 501.083 1303.4 502.244C1302.31 503.405 1300.93 504.289 1299.27 504.896ZM1297.89 501.107C1299.19 500.631 1300.13 499.82 1300.68 498.674C1301.22 497.505 1301.21 496.131 1300.63 494.552L1300.51 494.214C1299.94 492.635 1299.07 491.585 1297.91 491.062C1296.76 490.509 1295.52 490.474 1294.19 490.959C1292.88 491.435 1291.96 492.257 1291.41 493.426C1290.86 494.572 1290.87 495.935 1291.44 497.514L1291.57 497.852C1292.14 499.431 1293.01 500.493 1294.18 501.038C1295.34 501.56 1296.58 501.583 1297.89 501.107ZM1311.82 499.789L1305.72 483.01L1309.91 481.483L1310.71 483.682L1311.32 483.46C1311.38 482.776 1311.68 482.038 1312.24 481.249C1312.79 480.437 1313.82 479.756 1315.33 479.206C1316.63 478.73 1317.88 478.619 1319.08 478.875C1320.28 479.101 1321.35 479.645 1322.27 480.508C1323.19 481.348 1323.91 482.467 1324.42 483.866L1328.06 493.879L1323.8 495.43L1320.28 485.755C1319.82 484.492 1319.16 483.66 1318.3 483.258C1317.46 482.849 1316.46 482.853 1315.31 483.272C1314 483.748 1313.15 484.557 1312.75 485.699C1312.34 486.819 1312.42 488.157 1312.98 489.713L1316.09 498.238L1311.82 499.789ZM1338.63 490.031C1337.53 490.433 1336.5 490.423 1335.56 490.001C1334.63 489.548 1333.95 488.747 1333.53 487.596L1330.09 478.124L1325.89 479.651L1324.61 476.133L1328.81 474.606L1326.91 469.396L1331.17 467.845L1333.07 473.055L1337.67 471.38L1338.95 474.898L1334.35 476.573L1337.53 485.301C1337.77 485.977 1338.21 486.201 1338.84 485.971L1342.09 484.789L1343.37 488.307L1338.63 490.031ZM1353.02 485.332C1351.82 485.767 1350.68 485.954 1349.58 485.893C1348.48 485.809 1347.5 485.476 1346.65 484.891C1345.81 484.277 1345.18 483.394 1344.77 482.244C1344.35 481.094 1344.27 480.037 1344.53 479.073C1344.81 478.078 1345.36 477.213 1346.19 476.476C1347.04 475.709 1348.09 475.096 1349.35 474.636L1353.95 472.962L1353.61 472.015C1353.32 471.225 1352.84 470.673 1352.16 470.357C1351.48 470.019 1350.59 470.047 1349.51 470.441C1348.45 470.827 1347.75 471.362 1347.41 472.047C1347.07 472.71 1346.96 473.453 1347.08 474.277L1342.67 474.386C1342.63 473.431 1342.78 472.496 1343.11 471.584C1343.45 470.641 1344.05 469.774 1344.88 468.984C1345.73 468.164 1346.88 467.491 1348.32 466.966C1350.53 466.161 1352.48 466.078 1354.17 466.715C1355.86 467.352 1357.08 468.719 1357.85 470.817L1360.12 477.075C1360.37 477.752 1360.81 477.975 1361.44 477.745L1362.79 477.253L1364.08 480.771L1361.23 481.805C1360.4 482.109 1359.64 482.156 1358.95 481.947C1358.26 481.738 1357.79 481.296 1357.55 480.619L1357.53 480.585L1356.89 480.819C1356.9 481.123 1356.83 481.557 1356.68 482.123C1356.52 482.667 1356.16 483.231 1355.61 483.815C1355.05 484.4 1354.19 484.906 1353.02 485.332ZM1352.5 481.611C1353.7 481.176 1354.55 480.496 1355.06 479.571C1355.58 478.615 1355.64 477.585 1355.23 476.48L1355.11 476.142L1350.81 477.705C1350.03 477.993 1349.47 478.388 1349.14 478.89C1348.81 479.392 1348.76 479.948 1348.98 480.557C1349.2 481.166 1349.62 481.576 1350.23 481.787C1350.84 481.998 1351.6 481.939 1352.5 481.611ZM1374.92 477.362C1373.29 477.953 1371.69 478.152 1370.11 477.96C1368.56 477.759 1367.17 477.156 1365.93 476.149C1364.7 475.143 1363.75 473.726 1363.08 471.9L1362.91 471.426C1362.24 469.599 1362.06 467.904 1362.36 466.339C1362.66 464.774 1363.34 463.416 1364.4 462.263C1365.49 461.102 1366.84 460.226 1368.46 459.635C1370.07 459.053 1371.54 458.834 1372.9 458.979C1374.25 459.124 1375.46 459.566 1376.52 460.303C1377.6 461.011 1378.47 461.943 1379.15 463.102L1375.34 465.483C1375.01 464.839 1374.58 464.304 1374.07 463.878C1373.56 463.452 1372.95 463.187 1372.25 463.085C1371.57 462.975 1370.8 463.075 1369.94 463.387C1369.09 463.699 1368.38 464.174 1367.82 464.812C1367.27 465.419 1366.93 466.169 1366.8 467.061C1366.68 467.922 1366.81 468.882 1367.2 469.942L1367.32 470.281C1367.71 471.341 1368.23 472.173 1368.88 472.778C1369.55 473.352 1370.29 473.707 1371.11 473.844C1371.94 473.951 1372.78 473.848 1373.64 473.536C1374.92 473.068 1375.77 472.388 1376.19 471.496C1376.62 470.573 1376.73 469.538 1376.52 468.389L1381 467.868C1381.14 469.17 1381.03 470.449 1380.67 471.704C1380.33 472.928 1379.68 474.031 1378.74 475.014C1377.79 475.996 1376.52 476.779 1374.92 477.362ZM1392.55 470.407C1391.44 470.81 1390.42 470.8 1389.47 470.378C1388.54 469.925 1387.87 469.123 1387.45 467.973L1384 458.501L1379.81 460.028L1378.53 456.509L1382.72 454.983L1380.82 449.773L1385.09 448.222L1386.98 453.431L1391.58 451.757L1392.86 455.275L1388.26 456.949L1391.44 465.677C1391.69 466.354 1392.13 466.577 1392.76 466.347L1396 465.165L1397.28 468.684L1392.55 470.407Z"
      fill="#29314D" />
    <g filter="url(#filter4_d_1_10)">
      <rect x="606.747" y="592.764" width="235" height="291" rx="20" transform="rotate(-20 606.747 592.764)"
        fill="#FF9153" />
    </g>
    <path
      d="M697.852 725.306L688.276 698.995L693.237 697.189L701.172 718.99L713.2 714.612L714.842 719.123L697.852 725.306ZM709.409 704.371L708.479 701.815L709.945 701.282C711.097 700.862 711.464 700.076 711.044 698.923L710.607 697.72L709.968 697.953C708.965 698.318 708.016 698.323 707.121 697.968C706.25 697.603 705.646 696.958 705.309 696.03C704.944 695.028 704.974 694.095 705.397 693.231C705.846 692.359 706.571 691.74 707.573 691.375C708.601 691.001 709.559 691.021 710.447 691.436C711.327 691.825 711.963 692.559 712.355 693.636L713.928 697.959C714.95 700.765 714.057 702.679 711.251 703.701L709.409 704.371ZM733.265 713.013C731.41 713.688 729.628 713.897 727.917 713.64C726.221 713.349 724.713 712.635 723.391 711.499C722.085 710.328 721.077 708.765 720.365 706.811L720.201 706.36C719.49 704.405 719.263 702.573 719.52 700.861C719.767 699.125 720.452 697.613 721.572 696.326C722.684 695.013 724.166 694.02 726.021 693.345C727.85 692.679 729.592 692.513 731.246 692.848C732.891 693.157 734.354 693.901 735.634 695.081C736.906 696.236 737.889 697.766 738.582 699.67L739.17 701.286L725.601 706.225C726.116 707.485 726.971 708.351 728.165 708.825C729.359 709.298 730.607 709.298 731.91 708.824C733.238 708.34 734.111 707.697 734.527 706.892C734.944 706.088 735.188 705.276 735.258 704.455L739.868 705.076C739.755 705.855 739.501 706.756 739.107 707.779C738.729 708.768 738.089 709.739 737.187 710.692C736.276 711.619 734.969 712.393 733.265 713.013ZM724.352 702.678L733.073 699.504C732.58 698.463 731.827 697.758 730.813 697.389C729.824 697.012 728.716 697.046 727.488 697.493C726.21 697.958 725.314 698.653 724.799 699.578C724.285 700.503 724.136 701.537 724.352 702.678ZM722.589 692.806L723.346 686.23L728.684 684.288L726.724 691.301L722.589 692.806ZM762.991 710.111L759.475 700.451L758.798 700.697C758.703 701.215 758.494 701.773 758.173 702.372C757.843 702.946 757.335 703.5 756.65 704.034C755.998 704.583 755.109 705.063 753.981 705.473C752.478 706.02 750.955 706.163 749.412 705.902C747.86 705.615 746.436 704.899 745.14 703.753C743.843 702.608 742.825 701.02 742.087 698.99L741.868 698.389C741.129 696.359 740.888 694.489 741.145 692.778C741.402 691.067 742.037 689.615 743.051 688.423C744.08 687.197 745.334 686.315 746.812 685.777C748.516 685.157 749.912 684.975 750.999 685.232C752.101 685.455 752.998 685.853 753.688 686.424L754.365 686.178L753.544 683.923L758.205 682.226L767.727 708.387L762.991 710.111ZM753.905 700.819C755.383 700.28 756.43 699.374 757.044 698.101C757.675 696.793 757.662 695.237 757.005 693.433L756.869 693.057C756.212 691.252 755.226 690.065 753.911 689.493C752.588 688.897 751.199 688.863 749.746 689.392C748.292 689.921 747.25 690.839 746.619 692.147C745.98 693.43 745.988 694.974 746.645 696.778L746.782 697.154C747.438 698.958 748.428 700.158 749.752 700.755C751.067 701.326 752.451 701.347 753.905 700.819ZM777.455 696.674C776.002 697.203 774.605 697.342 773.265 697.092C771.942 696.808 770.765 696.186 769.735 695.227C768.705 694.268 767.911 693.025 767.355 691.496L763.305 680.37L768.042 678.646L771.954 689.396C772.465 690.8 773.186 691.729 774.118 692.184C775.075 692.631 776.193 692.621 777.471 692.156C778.924 691.627 779.879 690.74 780.334 689.496C780.78 688.227 780.688 686.728 780.059 684.999L776.612 675.527L781.348 673.803L788.133 692.447L783.472 694.143L782.583 691.7L781.907 691.946C781.834 692.682 781.493 693.501 780.885 694.404C780.277 695.306 779.134 696.063 777.455 696.674ZM793.403 690.529L786.618 671.885L791.354 670.161L798.14 688.805L793.403 690.529ZM788.192 668.843C787.34 669.153 786.513 669.142 785.711 668.81C784.934 668.468 784.382 667.846 784.053 666.944C783.725 666.042 783.749 665.21 784.124 664.449C784.525 663.679 785.151 663.139 786.003 662.829C786.88 662.51 787.707 662.521 788.484 662.862C789.261 663.204 789.814 663.826 790.142 664.728C790.471 665.63 790.447 666.462 790.071 667.223C789.696 667.984 789.069 668.524 788.192 668.843ZM806.124 694.412L796.602 668.251L801.263 666.555L802.084 668.81L802.76 668.564C802.922 667.682 803.353 666.801 804.055 665.922C804.747 665.017 805.933 664.259 807.612 663.648C809.115 663.101 810.643 662.97 812.194 663.257C813.737 663.519 815.156 664.222 816.453 665.368C817.75 666.513 818.767 668.101 819.506 670.131L819.725 670.732C820.464 672.762 820.705 674.632 820.448 676.343C820.191 678.054 819.56 679.518 818.556 680.735C817.542 681.927 816.284 682.797 814.78 683.344C813.653 683.754 812.65 683.963 811.773 683.97C810.93 683.993 810.198 683.891 809.576 683.663C808.97 683.401 808.451 683.108 808.021 682.782L807.344 683.028L810.86 692.688L806.124 694.412ZM811.847 679.729C813.326 679.191 814.372 678.285 814.987 677.011C815.618 675.703 815.605 674.147 814.948 672.343L814.811 671.967C814.154 670.163 813.169 668.975 811.854 668.404C810.53 667.807 809.142 667.773 807.688 668.302C806.235 668.831 805.193 669.75 804.562 671.058C803.922 672.341 803.931 673.884 804.587 675.688L804.724 676.064C805.381 677.869 806.371 679.069 807.695 679.665C809.01 680.237 810.394 680.258 811.847 679.729ZM836.044 675.605C834.189 676.28 832.407 676.489 830.695 676.232C829 675.941 827.492 675.227 826.17 674.09C824.864 672.92 823.856 671.357 823.144 669.402L822.98 668.951C822.269 666.997 822.042 665.164 822.298 663.453C822.546 661.717 823.23 660.205 824.351 658.917C825.462 657.605 826.945 656.611 828.8 655.936C830.629 655.27 832.371 655.105 834.025 655.439C835.67 655.748 837.133 656.493 838.413 657.673C839.685 658.827 840.667 660.357 841.361 662.262L841.949 663.878L828.38 668.817C828.895 670.076 829.75 670.943 830.944 671.416C832.137 671.89 833.386 671.89 834.689 671.415C836.017 670.932 836.89 670.288 837.306 669.484C837.723 668.679 837.966 667.867 838.037 667.047L842.647 667.668C842.533 668.447 842.28 669.348 841.886 670.371C841.508 671.36 840.868 672.331 839.966 673.283C839.055 674.211 837.748 674.985 836.044 675.605ZM827.131 665.27L835.852 662.096C835.359 661.055 834.606 660.35 833.592 659.981C832.603 659.603 831.495 659.638 830.267 660.084C828.989 660.55 828.093 661.245 827.578 662.17C827.063 663.095 826.914 664.128 827.131 665.27Z"
      fill="#FFFAD9" />
    <path
      d="M109.673 191.496V163.496H114.953V186.696H127.753V191.496H109.673ZM127.693 175.776V173.056H129.253C130.479 173.056 131.093 172.443 131.093 171.216V169.936H130.413C129.346 169.936 128.453 169.616 127.733 168.976C127.039 168.336 126.693 167.523 126.693 166.536C126.693 165.469 127.039 164.603 127.733 163.936C128.453 163.269 129.346 162.936 130.413 162.936C131.506 162.936 132.399 163.283 133.093 163.976C133.786 164.643 134.133 165.549 134.133 166.696V171.296C134.133 174.283 132.639 175.776 129.653 175.776H127.693ZM144.352 192.056C142.939 192.056 141.672 191.816 140.552 191.336C139.432 190.829 138.539 190.109 137.872 189.176C137.232 188.216 136.912 187.056 136.912 185.696C136.912 184.336 137.232 183.203 137.872 182.296C138.539 181.363 139.445 180.669 140.592 180.216C141.765 179.736 143.099 179.496 144.592 179.496H150.032V178.376C150.032 177.443 149.739 176.683 149.152 176.096C148.565 175.483 147.632 175.176 146.352 175.176C145.099 175.176 144.165 175.469 143.552 176.056C142.939 176.616 142.539 177.349 142.352 178.256L137.712 176.696C138.032 175.683 138.539 174.763 139.232 173.936C139.952 173.083 140.899 172.403 142.072 171.896C143.272 171.363 144.725 171.096 146.432 171.096C149.045 171.096 151.112 171.749 152.632 173.056C154.152 174.363 154.912 176.256 154.912 178.736V186.136C154.912 186.936 155.285 187.336 156.032 187.336H157.632V191.496H154.272C153.285 191.496 152.472 191.256 151.832 190.776C151.192 190.296 150.872 189.656 150.872 188.856V188.816H150.112C150.005 189.136 149.765 189.563 149.392 190.096C149.019 190.603 148.432 191.056 147.632 191.456C146.832 191.856 145.739 192.056 144.352 192.056ZM145.232 187.976C146.645 187.976 147.792 187.589 148.672 186.816C149.579 186.016 150.032 184.963 150.032 183.656V183.256H144.952C144.019 183.256 143.285 183.456 142.752 183.856C142.219 184.256 141.952 184.816 141.952 185.536C141.952 186.256 142.232 186.843 142.792 187.296C143.352 187.749 144.165 187.976 145.232 187.976ZM159.966 181.656V181.016C159.966 178.936 160.38 177.163 161.206 175.696C162.033 174.203 163.126 173.069 164.486 172.296C165.873 171.496 167.38 171.096 169.006 171.096C170.82 171.096 172.193 171.416 173.126 172.056C174.06 172.696 174.74 173.363 175.166 174.056H175.886V171.656H180.846V195.016C180.846 196.376 180.446 197.456 179.646 198.256C178.846 199.083 177.78 199.496 176.446 199.496H163.166V195.096H174.686C175.433 195.096 175.806 194.696 175.806 193.896V188.736H175.086C174.82 189.163 174.446 189.603 173.966 190.056C173.486 190.483 172.846 190.843 172.046 191.136C171.246 191.429 170.233 191.576 169.006 191.576C167.38 191.576 165.873 191.189 164.486 190.416C163.126 189.616 162.033 188.483 161.206 187.016C160.38 185.523 159.966 183.736 159.966 181.656ZM170.446 187.176C171.993 187.176 173.286 186.683 174.326 185.696C175.366 184.709 175.886 183.323 175.886 181.536V181.136C175.886 179.323 175.366 177.936 174.326 176.976C173.313 175.989 172.02 175.496 170.446 175.496C168.9 175.496 167.606 175.989 166.566 176.976C165.526 177.936 165.006 179.323 165.006 181.136V181.536C165.006 183.323 165.526 184.709 166.566 185.696C167.606 186.683 168.9 187.176 170.446 187.176ZM195.474 192.056C193.501 192.056 191.754 191.643 190.234 190.816C188.741 189.963 187.568 188.776 186.714 187.256C185.888 185.709 185.474 183.896 185.474 181.816V181.336C185.474 179.256 185.888 177.456 186.714 175.936C187.541 174.389 188.701 173.203 190.194 172.376C191.688 171.523 193.421 171.096 195.394 171.096C197.341 171.096 199.034 171.536 200.474 172.416C201.914 173.269 203.034 174.469 203.834 176.016C204.634 177.536 205.034 179.309 205.034 181.336V183.056H190.594C190.648 184.416 191.154 185.523 192.114 186.376C193.074 187.229 194.248 187.656 195.634 187.656C197.048 187.656 198.088 187.349 198.754 186.736C199.421 186.123 199.928 185.443 200.274 184.696L204.394 186.856C204.021 187.549 203.474 188.309 202.754 189.136C202.061 189.936 201.128 190.629 199.954 191.216C198.781 191.776 197.288 192.056 195.474 192.056ZM190.634 179.296H199.914C199.808 178.149 199.341 177.229 198.514 176.536C197.714 175.843 196.661 175.496 195.354 175.496C193.994 175.496 192.914 175.843 192.114 176.536C191.314 177.229 190.821 178.149 190.634 179.296ZM209.52 191.496V171.656H214.48V174.256H215.2C215.52 173.563 216.12 172.909 217 172.296C217.88 171.656 219.214 171.336 221 171.336C222.547 171.336 223.894 171.696 225.04 172.416C226.214 173.109 227.12 174.083 227.76 175.336C228.4 176.563 228.72 178.003 228.72 179.656V191.496H223.68V180.056C223.68 178.563 223.307 177.443 222.56 176.696C221.84 175.949 220.8 175.576 219.44 175.576C217.894 175.576 216.694 176.096 215.84 177.136C214.987 178.149 214.56 179.576 214.56 181.416V191.496H209.52ZM243.489 192.056C241.569 192.056 239.822 191.656 238.249 190.856C236.702 190.056 235.475 188.896 234.569 187.376C233.662 185.856 233.209 184.016 233.209 181.856V181.296C233.209 179.136 233.662 177.296 234.569 175.776C235.475 174.256 236.702 173.096 238.249 172.296C239.822 171.496 241.569 171.096 243.489 171.096C245.382 171.096 247.009 171.429 248.369 172.096C249.729 172.763 250.822 173.683 251.649 174.856C252.502 176.003 253.062 177.309 253.329 178.776L248.449 179.816C248.342 179.016 248.102 178.296 247.729 177.656C247.355 177.016 246.822 176.509 246.129 176.136C245.462 175.763 244.622 175.576 243.609 175.576C242.595 175.576 241.675 175.803 240.849 176.256C240.049 176.683 239.409 177.336 238.929 178.216C238.475 179.069 238.249 180.123 238.249 181.376V181.776C238.249 183.029 238.475 184.096 238.929 184.976C239.409 185.829 240.049 186.483 240.849 186.936C241.675 187.363 242.595 187.576 243.609 187.576C245.129 187.576 246.275 187.189 247.049 186.416C247.849 185.616 248.355 184.576 248.569 183.296L253.449 184.456C253.102 185.869 252.502 187.163 251.649 188.336C250.822 189.483 249.729 190.389 248.369 191.056C247.009 191.723 245.382 192.056 243.489 192.056ZM266.646 192.056C264.673 192.056 262.926 191.643 261.406 190.816C259.913 189.963 258.739 188.776 257.886 187.256C257.059 185.709 256.646 183.896 256.646 181.816V181.336C256.646 179.256 257.059 177.456 257.886 175.936C258.713 174.389 259.873 173.203 261.366 172.376C262.859 171.523 264.593 171.096 266.566 171.096C268.513 171.096 270.206 171.536 271.646 172.416C273.086 173.269 274.206 174.469 275.006 176.016C275.806 177.536 276.206 179.309 276.206 181.336V183.056H261.766C261.819 184.416 262.326 185.523 263.286 186.376C264.246 187.229 265.419 187.656 266.806 187.656C268.219 187.656 269.259 187.349 269.926 186.736C270.593 186.123 271.099 185.443 271.446 184.696L275.566 186.856C275.193 187.549 274.646 188.309 273.926 189.136C273.233 189.936 272.299 190.629 271.126 191.216C269.953 191.776 268.459 192.056 266.646 192.056ZM261.806 179.296H271.086C270.979 178.149 270.513 177.229 269.686 176.536C268.886 175.843 267.833 175.496 266.526 175.496C265.166 175.496 264.086 175.843 263.286 176.536C262.486 177.229 261.993 178.149 261.806 179.296Z"
      fill="#29314D" />
    <g filter="url(#filter5_d_1_10)">
      <path
        d="M790.565 270.595C786.787 260.215 792.139 248.739 802.519 244.961L985.759 178.267C996.138 174.489 1007.62 179.841 1011.39 190.22L1097.24 426.083C1101.02 436.463 1095.67 447.94 1085.29 451.717L902.046 518.411C891.667 522.189 880.19 516.837 876.412 506.458L790.565 270.595Z"
        fill="#B0DDF8" />
      <path
        d="M802.69 245.431L985.93 178.737C996.05 175.053 1007.24 180.271 1010.92 190.391L1096.77 426.254C1100.45 436.374 1095.24 447.564 1085.12 451.248L901.875 517.941C891.755 521.625 880.565 516.407 876.882 506.287L791.035 270.424C787.352 260.304 792.57 249.114 802.69 245.431Z"
        stroke="black" />
    </g>
    <path
      d="M883.145 386.038C881.115 386.777 879.191 387.066 877.373 386.904C875.555 386.743 873.961 386.146 872.592 385.112C871.222 384.078 870.191 382.609 869.498 380.704L869.114 379.652L874.001 377.873L874.384 378.926C874.959 380.504 875.88 381.517 877.15 381.963C878.41 382.384 879.879 382.289 881.558 381.678C883.262 381.058 884.404 380.259 884.985 379.281C885.591 378.295 885.702 377.275 885.319 376.223C885.054 375.496 884.627 374.985 884.037 374.689C883.472 374.384 882.738 374.239 881.836 374.255C880.95 374.237 879.897 374.308 878.678 374.468L877.745 374.595C875.795 374.851 874.059 374.915 872.537 374.788C871.031 374.626 869.745 374.172 868.679 373.425C867.637 372.669 866.825 371.489 866.241 369.886C865.657 368.282 865.536 366.779 865.877 365.378C866.235 363.943 866.993 362.673 868.152 361.57C869.328 360.433 870.855 359.523 872.734 358.838C874.614 358.154 876.399 357.874 878.089 357.996C879.796 358.085 881.295 358.617 882.587 359.594C883.895 360.537 884.896 361.961 885.589 363.865L885.999 364.993L881.113 366.771L880.702 365.644C880.337 364.641 879.845 363.912 879.225 363.457C878.621 362.967 877.906 362.717 877.079 362.706C876.243 362.67 875.324 362.834 874.321 363.199C872.818 363.746 871.807 364.44 871.291 365.281C870.79 366.087 870.717 366.979 871.073 367.957C871.31 368.608 871.673 369.1 872.163 369.433C872.678 369.756 873.329 369.945 874.115 369.999C874.901 370.054 875.861 370.002 876.996 369.845L877.929 369.718C879.954 369.435 881.77 369.356 883.376 369.481C885.007 369.596 886.398 370.027 887.549 370.771C888.7 371.516 889.567 372.69 890.151 374.294C890.734 375.898 890.836 377.464 890.456 378.993C890.092 380.487 889.286 381.859 888.038 383.108C886.806 384.323 885.175 385.299 883.145 386.038ZM905.451 377.919C903.597 378.594 901.814 378.803 900.103 378.546C898.408 378.255 896.9 377.541 895.578 376.405C894.272 375.234 893.263 373.672 892.552 371.717L892.388 371.266C891.676 369.312 891.449 367.479 891.706 365.768C891.954 364.031 892.638 362.52 893.759 361.232C894.87 359.919 896.353 358.926 898.207 358.251C900.037 357.585 901.778 357.419 903.432 357.754C905.077 358.063 906.54 358.808 907.821 359.987C909.093 361.142 910.075 362.672 910.768 364.576L911.356 366.192L897.787 371.131C898.303 372.391 899.157 373.258 900.351 373.731C901.545 374.205 902.794 374.204 904.097 373.73C905.425 373.247 906.297 372.603 906.714 371.798C907.13 370.994 907.374 370.182 907.444 369.362L912.055 369.982C911.941 370.761 911.687 371.662 911.293 372.686C910.916 373.674 910.276 374.645 909.374 375.598C908.463 376.525 907.155 377.299 905.451 377.919ZM896.539 367.584L905.259 364.41C904.767 363.369 904.014 362.664 903 362.296C902.011 361.918 900.902 361.952 899.675 362.399C898.397 362.864 897.5 363.559 896.986 364.485C896.471 365.41 896.322 366.443 896.539 367.584ZM918.458 372.589L911.673 353.946L916.334 352.249L917.1 354.354L917.776 354.108C917.778 353.256 918.029 352.54 918.528 351.962C919.051 351.374 919.739 350.925 920.591 350.614L922.847 349.794L924.379 354.003L922.048 354.852C920.846 355.289 919.974 355.975 919.435 356.91C918.886 357.819 918.853 358.938 919.337 360.266L923.195 370.865L918.458 372.589ZM937.271 365.742L924.546 349.26L929.583 347.427L939.432 361.039L940.109 360.793L938.905 344.034L943.941 342.201L944.788 363.006L937.271 365.742ZM953.954 359.67L947.168 341.026L951.904 339.303L958.69 357.946L953.954 359.67ZM948.743 337.984C947.891 338.294 947.064 338.283 946.262 337.951C945.485 337.609 944.932 336.988 944.604 336.086C944.275 335.183 944.299 334.352 944.675 333.591C945.075 332.821 945.702 332.28 946.554 331.97C947.431 331.651 948.258 331.662 949.035 332.004C949.812 332.345 950.365 332.967 950.693 333.869C951.021 334.771 950.998 335.603 950.622 336.364C950.246 337.125 949.62 337.665 948.743 337.984ZM972.888 353.375C971.083 354.031 969.305 354.253 967.553 354.039C965.826 353.816 964.277 353.146 962.905 352.028C961.533 350.909 960.478 349.335 959.739 347.306L959.547 346.779C958.809 344.75 958.605 342.866 958.937 341.127C959.27 339.389 960.026 337.879 961.205 336.598C962.41 335.309 963.915 334.335 965.719 333.679C967.498 333.031 969.141 332.788 970.647 332.949C972.153 333.11 973.495 333.601 974.673 334.421C975.867 335.207 976.84 336.243 977.592 337.53L973.362 340.176C972.988 339.461 972.517 338.866 971.947 338.393C971.377 337.919 970.703 337.625 969.923 337.512C969.169 337.389 968.316 337.501 967.364 337.847C966.412 338.194 965.625 338.722 965.003 339.43C964.397 340.105 964.019 340.938 963.869 341.929C963.735 342.886 963.882 343.953 964.311 345.131L964.448 345.507C964.876 346.684 965.454 347.609 966.181 348.281C966.924 348.919 967.749 349.314 968.656 349.466C969.578 349.584 970.516 349.47 971.468 349.124C972.896 348.604 973.842 347.848 974.304 346.857C974.782 345.832 974.902 344.681 974.665 343.405L979.648 342.826C979.805 344.273 979.684 345.694 979.283 347.088C978.899 348.448 978.181 349.674 977.131 350.766C976.081 351.857 974.667 352.727 972.888 353.375ZM994.649 345.454C992.794 346.129 991.012 346.338 989.3 346.081C987.605 345.79 986.097 345.076 984.775 343.94C983.469 342.769 982.461 341.206 981.749 339.252L981.585 338.801C980.874 336.846 980.647 335.013 980.903 333.302C981.151 331.566 981.835 330.054 982.956 328.767C984.067 327.454 985.55 326.46 987.405 325.786C989.234 325.12 990.976 324.954 992.63 325.289C994.275 325.598 995.738 326.342 997.018 327.522C998.29 328.677 999.272 330.207 999.966 332.111L1000.55 333.727L986.985 338.666C987.5 339.926 988.355 340.792 989.549 341.266C990.742 341.739 991.991 341.739 993.294 341.265C994.622 340.781 995.494 340.138 995.911 339.333C996.328 338.529 996.571 337.717 996.642 336.896L1001.25 337.517C1001.14 338.296 1000.88 339.197 1000.49 340.22C1000.11 341.209 999.473 342.18 998.571 343.133C997.66 344.06 996.353 344.834 994.649 345.454ZM985.736 335.119L994.457 331.945C993.964 330.904 993.211 330.199 992.197 329.83C991.208 329.453 990.1 329.487 988.872 329.934C987.594 330.399 986.698 331.094 986.183 332.019C985.668 332.944 985.519 333.978 985.736 335.119ZM1015.59 337.832C1013.16 338.717 1010.98 338.915 1009.04 338.429C1007.1 337.942 1005.62 336.78 1004.58 334.944L1008.53 332.229C1009.02 333.043 1009.56 333.627 1010.15 333.982C1010.75 334.328 1011.4 334.505 1012.08 334.511C1012.78 334.484 1013.5 334.338 1014.22 334.073C1015.32 333.672 1016.07 333.188 1016.46 332.62C1016.84 332.028 1016.93 331.443 1016.72 330.867C1016.51 330.291 1016.1 329.943 1015.49 329.825C1014.87 329.682 1013.97 329.71 1012.79 329.911L1011.67 330.106C1010.28 330.33 1008.96 330.425 1007.73 330.391C1006.49 330.332 1005.4 330.033 1004.47 329.493C1003.53 328.954 1002.84 328.07 1002.4 326.842C1001.72 324.988 1001.88 323.326 1002.88 321.856C1003.87 320.361 1005.46 319.212 1007.67 318.41C1009.75 317.653 1011.65 317.487 1013.36 317.912C1015.08 318.338 1016.42 319.225 1017.4 320.573L1013.49 323.527C1012.94 322.648 1012.28 322.122 1011.51 321.949C1010.76 321.767 1009.94 321.84 1009.04 322.168C1008.14 322.497 1007.51 322.91 1007.15 323.409C1006.78 323.883 1006.7 324.396 1006.9 324.947C1007.12 325.549 1007.53 325.909 1008.14 326.027C1008.75 326.12 1009.5 326.087 1010.41 325.927L1011.53 325.732C1013.02 325.472 1014.41 325.35 1015.69 325.365C1016.99 325.347 1018.11 325.607 1019.04 326.147C1019.99 326.652 1020.7 327.556 1021.18 328.86C1021.89 330.814 1021.73 332.59 1020.69 334.187C1019.67 335.751 1017.97 336.965 1015.59 337.832Z"
      fill="#29314D" />
    <path
      d="M258.518 523.3C232.15 521.826 207.589 537.477 197.741 562.036C199.175 535.707 183.625 511.207 159.207 501.351C185.574 502.825 210.136 487.175 219.984 462.616C218.55 488.945 234.1 513.444 258.518 523.3Z"
      fill="#99D9B3" stroke="black" stroke-width="1.66" />
    <path
      d="M1152.04 135.767L1152.44 138.434L1153.61 136.005L1168.41 105.326L1163.18 138.919L1162.77 141.592L1164.61 139.612L1187.88 114.622L1172.89 145.182L1171.69 147.624L1174.05 146.267L1203.71 129.186L1180.3 154.001L1178.42 155.991L1181.09 155.379L1214.5 147.716L1184.75 164.591L1182.36 165.947L1185.1 166.141L1219.3 168.567L1185.85 176.011L1183.17 176.609L1185.73 177.596L1217.69 189.893L1183.5 187.246L1180.77 187.034L1182.93 188.727L1209.81 209.805L1177.91 197.295L1175.37 196.299L1176.93 198.541L1196.35 226.54L1169.58 205.268L1167.46 203.58L1168.27 206.167L1178.5 238.605L1159.25 210.456L1157.72 208.228L1157.73 210.927L1157.84 244.922L1147.83 212.4L1147.03 209.825L1146.24 212.4L1136.22 244.922L1136.34 210.927L1136.34 208.228L1134.82 210.456L1115.57 238.605L1125.79 206.167L1126.61 203.58L1124.49 205.268L1097.72 226.54L1117.14 198.541L1118.69 196.299L1116.15 197.295L1084.26 209.805L1111.14 188.727L1113.3 187.034L1110.56 187.246L1076.38 189.893L1108.33 177.596L1110.9 176.609L1108.21 176.011L1074.76 168.567L1108.96 166.141L1111.7 165.947L1109.31 164.591L1079.56 147.716L1112.98 155.379L1115.64 155.991L1113.77 154.001L1090.36 129.186L1120.02 146.267L1122.37 147.624L1121.18 145.182L1106.19 114.622L1129.46 139.612L1131.3 141.592L1130.88 138.919L1125.66 105.326L1140.46 136.005L1141.63 138.434L1142.03 135.767L1147.03 102.132L1152.04 135.767Z"
      fill="#F0C3D2" stroke="black" stroke-width="1.66" />
  </g>
  <defs>
    <filter id="filter0_d_1_10" x="80" y="46" width="245" height="301" filterUnits="userSpaceOnUse"
      color-interpolation-filters="sRGB">
      <feFlood flood-opacity="0" result="BackgroundImageFix" />
      <feColorMatrix in="SourceAlpha" type="matrix" values="0 0 0 0 0 0 0 0 0 0 0 0 0 0 0 0 0 0 127 0"
        result="hardAlpha" />
      <feOffset dx="10" dy="10" />
      <feComposite in2="hardAlpha" operator="out" />
      <feColorMatrix type="matrix" values="0 0 0 0 0 0 0 0 0 0 0 0 0 0 0 0 0 0 1 0" />
      <feBlend mode="normal" in2="BackgroundImageFix" result="effect1_dropShadow_1_10" />
      <feBlend mode="normal" in="SourceGraphic" in2="effect1_dropShadow_1_10" result="shape" />
    </filter>
    <filter id="filter1_d_1_10" x="213.175" y="233.616" width="285.63" height="331.055" filterUnits="userSpaceOnUse"
      color-interpolation-filters="sRGB">
      <feFlood flood-opacity="0" result="BackgroundImageFix" />
      <feColorMatrix in="SourceAlpha" type="matrix" values="0 0 0 0 0 0 0 0 0 0 0 0 0 0 0 0 0 0 127 0"
        result="hardAlpha" />
      <feOffset dx="10" dy="10" />
      <feComposite in2="hardAlpha" operator="out" />
      <feColorMatrix type="matrix" values="0 0 0 0 0 0 0 0 0 0 0 0 0 0 0 0 0 0 1 0" />
      <feBlend mode="normal" in2="BackgroundImageFix" result="effect1_dropShadow_1_10" />
      <feBlend mode="normal" in="SourceGraphic" in2="effect1_dropShadow_1_10" result="shape" />
    </filter>
    <filter id="filter2_d_1_10" x="613.629" y="5.62881" width="319.098" height="352.568" filterUnits="userSpaceOnUse"
      color-interpolation-filters="sRGB">
      <feFlood flood-opacity="0" result="BackgroundImageFix" />
      <feColorMatrix in="SourceAlpha" type="matrix" values="0 0 0 0 0 0 0 0 0 0 0 0 0 0 0 0 0 0 127 0"
        result="hardAlpha" />
      <feOffset dx="10" dy="10" />
      <feComposite in2="hardAlpha" operator="out" />
      <feColorMatrix type="matrix" values="0 0 0 0 0 0 0 0 0 0 0 0 0 0 0 0 0 0 1 0" />
      <feBlend mode="normal" in2="BackgroundImageFix" result="effect1_dropShadow_1_10" />
      <feBlend mode="normal" in="SourceGraphic" in2="effect1_dropShadow_1_10" result="shape" />
    </filter>
    <filter id="filter3_d_1_10" x="1173.89" y="321.788" width="319.098" height="352.568" filterUnits="userSpaceOnUse"
      color-interpolation-filters="sRGB">
      <feFlood flood-opacity="0" result="BackgroundImageFix" />
      <feColorMatrix in="SourceAlpha" type="matrix" values="0 0 0 0 0 0 0 0 0 0 0 0 0 0 0 0 0 0 127 0"
        result="hardAlpha" />
      <feOffset dx="10" dy="10" />
      <feComposite in2="hardAlpha" operator="out" />
      <feColorMatrix type="matrix" values="0 0 0 0 0 0 0 0 0 0 0 0 0 0 0 0 0 0 1 0" />
      <feBlend mode="normal" in2="BackgroundImageFix" result="effect1_dropShadow_1_10" />
      <feBlend mode="normal" in="SourceGraphic" in2="effect1_dropShadow_1_10" result="shape" />
    </filter>
    <filter id="filter4_d_1_10" x="612.376" y="518.018" width="319.098" height="352.568" filterUnits="userSpaceOnUse"
      color-interpolation-filters="sRGB">
      <feFlood flood-opacity="0" result="BackgroundImageFix" />
      <feColorMatrix in="SourceAlpha" type="matrix" values="0 0 0 0 0 0 0 0 0 0 0 0 0 0 0 0 0 0 127 0"
        result="hardAlpha" />
      <feOffset dx="10" dy="10" />
      <feComposite in2="hardAlpha" operator="out" />
      <feColorMatrix type="matrix" values="0 0 0 0 0 0 0 0 0 0 0 0 0 0 0 0 0 0 1 0" />
      <feBlend mode="normal" in2="BackgroundImageFix" result="effect1_dropShadow_1_10" />
      <feBlend mode="normal" in="SourceGraphic" in2="effect1_dropShadow_1_10" result="shape" />
    </filter>
    <filter id="filter5_d_1_10" x="789.354" y="177.055" width="319.098" height="352.568" filterUnits="userSpaceOnUse"
      color-interpolation-filters="sRGB">
      <feFlood flood-opacity="0" result="BackgroundImageFix" />
      <feColorMatrix in="SourceAlpha" type="matrix" values="0 0 0 0 0 0 0 0 0 0 0 0 0 0 0 0 0 0 127 0"
        result="hardAlpha" />
      <feOffset dx="10" dy="10" />
      <feComposite in2="hardAlpha" operator="out" />
      <feColorMatrix type="matrix" values="0 0 0 0 0 0 0 0 0 0 0 0 0 0 0 0 0 0 1 0" />
      <feBlend mode="normal" in2="BackgroundImageFix" result="effect1_dropShadow_1_10" />
      <feBlend mode="normal" in="SourceGraphic" in2="effect1_dropShadow_1_10" result="shape" />
    </filter>
    <clipPath id="clip0_1_10">
      <rect width="1440" height="811" fill="white" />
    </clipPath>
    <clipPath id="clip1_1_10">
      <rect width="2048" height="2048" fill="white" />
    </clipPath>
  </defs>
</svg>