<svg width="468" height="79" viewBox="0 0 468 79" fill="none" xmlns="http://www.w3.org/2000/svg">
<path d="M100.56 47.16C100.95 58.43 86.25 64.88 78.14 57.16C71.71 63.33 60.07 60.68 56.85 52.41C54.85 49.1 56.14 28.72 55.79 24.78H64.79V47.16C64.79 48.3455 65.2609 49.4825 66.0992 50.3208C66.9375 51.1591 68.0745 51.63 69.26 51.63C70.4455 51.63 71.5825 51.1591 72.4208 50.3208C73.2591 49.4825 73.73 48.3455 73.73 47.16V24.74H82.67V47.16C82.67 48.3535 83.1441 49.4981 83.988 50.342C84.8319 51.1859 85.9765 51.66 87.17 51.66C88.3635 51.66 89.5081 51.1859 90.352 50.342C91.1959 49.4981 91.67 48.3535 91.67 47.16V24.74H100.61L100.56 47.16Z" fill="#29314D"/>
<path d="M121.07 51.27C123.077 51.7661 125.194 51.5449 127.055 50.6445C128.916 49.7442 130.403 48.2215 131.26 46.34L137.84 53C131.84 62 117.84 63.16 110.47 55.36C101.59 46.73 104.24 29.19 116.19 24.73C119.775 23.2811 123.724 22.9943 127.48 23.91C128.88 24.26 129.11 23.06 130.37 23.71C133.176 25.8144 135.706 28.2636 137.9 31L121.07 51.27ZM125.67 32.76C118.67 30.53 112.81 37.62 114.51 44.35C114.59 44.78 114.69 45.19 114.79 45.58C114.89 45.97 114.26 45.67 114.43 45.98L125.67 32.76Z" fill="#29314D"/>
<path d="M177.64 42C178.28 61.89 150.57 67.75 143.09 49.48C140.4 44.75 143.79 12.84 143.32 7.24L150.69 10.71V27.11C161 16.89 178.67 28.64 177.64 42ZM168.64 42C168.55 29.37 151.05 29.58 150.79 42C150.76 54.54 168.55 54.5 168.6 42H168.64Z" fill="#29314D"/>
<path d="M191.58 59.88H182.58V24.68H184.75L187.75 28.85C192.33 24.07 200.28 24.67 206.32 24.74V33.74C201.88 33.94 194.04 32.32 192.12 37.88C191.06 38.9 191.77 58.16 191.58 59.88Z" fill="#29314D"/>
<path d="M243.9 59.88H241.74L238.25 55.05C227 66.65 207.06 58.35 208 42C207.34 25.94 227.22 17 238.3 29L241.79 24.82H243.95L243.9 59.88ZM234.9 41.97C234.67 29.69 216.79 29.08 217.08 41.97C216.76 54.86 234.65 54.25 234.87 42L234.9 41.97Z" fill="#29314D"/>
<path d="M281.51 31.68L274.93 38.29C271.02 28.14 257.34 32.29 257.93 42.66C257.74 52.03 271.19 54.93 274.93 46.34L281.44 53C271.9 67.18 248.44 59.84 248.8 42.71C248.41 24.59 256.85 2.89999 281.51 31.68Z" fill="#29314D"/>
<path d="M294.92 59.88H285.92V10.68H294.92V41.68L308.3 24.68H318.62L307 39.4L318.67 59.88H308.3L301.16 47.1L294.92 55.38V59.88Z" fill="#29314D"/>
<path d="M335.08 51.27C337.087 51.7661 339.204 51.5449 341.065 50.6445C342.926 49.7442 344.413 48.2215 345.27 46.34L351.85 53C344.34 64.41 325.36 62.4 320.62 49.5C315.55 37.87 323.93 22.85 337.19 23.38C338.638 23.4048 340.079 23.5825 341.49 23.91C342.84 24.19 342.16 21 345.25 24.08C347.25 26.34 350.15 28.53 351.91 31.08L335.08 51.27ZM339.69 32.76C332.1 30.35 326.34 38.64 328.81 45.58C328.91 45.98 327.5 45.97 327.68 46.28L339.69 32.76Z" fill="#29314D"/>
<path d="M374.07 59.88C369.9 59.8616 365.906 58.1977 362.957 55.2501C360.007 52.3026 358.341 48.3097 358.32 44.14V33.69H354V24.74H358.37V10.68H367.31V24.74H380.92V33.74H367.26C367.76 39.49 365.2 47.93 371.41 50.45C373.14 51.45 378.93 50.85 380.87 50.99V59.93L374.07 59.88Z" fill="#29314D"/>
<path d="M405.23 59.88H384.72V50.94H405.23C406.92 51.13 408.39 48.4 406.81 47.46C403.04 46.46 395.1 48.12 391.52 46.27C382.62 42.82 382.52 29.03 391.52 25.62C394.29 23.96 410.79 25.03 414.07 24.74V33.74H395.89C392.98 33.74 393 38.31 395.89 38.27C398.99 38.45 406.75 37.73 409.57 39.04C420.93 43 416.85 60.17 405.23 59.88Z" fill="#29314D"/>
<path d="M59.21 18.91L64.77 24.75H55.79L50.24 18.91H59.21Z" fill="#29314D"/>
<path d="M77.09 18.91L82.65 24.75L71.14 24.88L77.09 18.91Z" fill="#29314D"/>
<path d="M95.01 18.91L100.56 24.75L91.5 25.51L95.01 18.91Z" fill="#29314D"/>
<path d="M150.69 10.68L145.13 4.84H136.13L141.66 11.97L150.69 10.68Z" fill="#29314D"/>
<path d="M182.6 59.88L177.05 54.05H186.02L191.58 59.88H182.6Z" fill="#29314D"/>
<path d="M200.75 18.91L206.3 24.75V33.69L200.75 27.85V18.91Z" fill="#29314D"/>
<path d="M238.35 18.91L243.91 24.75L238.25 28.92L232.7 23.08L238.35 18.91Z" fill="#29314D"/>
<path d="M243.91 59.88L238.35 54.05H236.18L241.74 59.88H243.91Z" fill="#29314D"/>
<path d="M275.95 25.84L281.51 31.68L274.93 38.29L269.38 32.45L275.95 25.84Z" fill="#29314D"/>
<path d="M294.92 10.68L289.36 4.84H280.32L285.88 10.68H294.92Z" fill="#29314D"/>
<path d="M318.62 24.75L313.06 18.91H302.74L306 24.75H318.62Z" fill="#29314D"/>
<path d="M285.88 59.88L280.32 54.05H289.36L294.92 59.88H285.88Z" fill="#29314D"/>
<path d="M313.06 54.05L318.62 59.88H308.3L302.74 54.05H313.06Z" fill="#29314D"/>
<path d="M367.26 10.68L361.71 4.84H352.77L358.32 10.68H367.26Z" fill="#29314D"/>
<path d="M375.32 18.91L384.72 25.33V33.68L375.32 27.85V18.91Z" fill="#29314D"/>
<path d="M375.32 45.1L380.87 50.94V59.88L375.32 54.05V45.1Z" fill="#29314D"/>
<path d="M408.51 18.91L414.07 24.75V33.69L408.51 27.85V18.91Z" fill="#29314D"/>
<path d="M379.16 45.1L384.72 50.94V59.88L379.16 54.05V45.1Z" fill="#29314D"/>
<path d="M95 41.32C95.39 52.59 80.68 59.05 72.58 51.32C66.14 57.49 54.51 54.84 51.28 46.57C49.28 43.26 50.57 22.89 50.28 18.95H59.28V41.32C59.28 42.5055 59.751 43.6425 60.5892 44.4808C61.4275 45.319 62.5645 45.79 63.75 45.79C64.9355 45.79 66.0725 45.319 66.9108 44.4808C67.7491 43.6425 68.22 42.5055 68.22 41.32V18.91H77.16V41.32C77.16 42.5135 77.6341 43.6581 78.478 44.502C79.3219 45.3459 80.4665 45.82 81.66 45.82C82.8535 45.82 83.9981 45.3459 84.842 44.502C85.6859 43.6581 86.16 42.5135 86.16 41.32V18.91H95V41.32Z" fill="#F7BECA"/>
<path d="M115.52 45.43C117.527 45.9281 119.645 45.7078 121.506 44.8072C123.368 43.9067 124.855 42.3828 125.71 40.5L132.18 47.26C122.3 61.72 98.8901 53.68 99.6401 36.13C98.7701 18.38 122.43 10.66 132.35 25.13L115.52 45.43ZM120.12 26.93C112.06 24.34 106.23 33.85 109.67 40.8L120.12 26.93Z" fill="#F7BECA"/>
<path d="M172.09 36.13C172.73 56 145 61.88 137.54 43.61C134.84 38.88 136.59 10.44 136.13 4.84H145.13V21.27C155.44 11.05 173.12 22.8 172.09 36.13ZM163.09 36.13C162.99 23.5 145.5 23.71 145.24 36.13C145.21 48.7 163 48.66 163.05 36.13H163.09Z" fill="#F7BECA"/>
<path d="M186 54H177V18.84H179.17L182.17 23.02C186.75 18.23 194.7 18.83 200.74 18.91V27.85C196.29 28.05 188.46 26.43 186.54 31.99C185.51 33.07 186.22 52.32 186 54Z" fill="#F7BECA"/>
<path d="M238.35 54H236.18L232.7 49.17C221.49 60.77 201.5 52.47 202.39 36.09C201.74 20.04 221.61 11.09 232.7 23.04L236.18 18.87H238.35V54ZM229.35 36.09C229.13 23.81 211.24 23.2 211.54 36.09C211.2 49 229.09 48.41 229.31 36.13L229.35 36.09Z" fill="#F7BECA"/>
<path d="M276 25.84L269.43 32.45C265.52 22.31 251.83 26.45 252.43 36.82C252.24 46.19 265.63 49.22 269.33 40.64L275.86 47.26C266.32 61.44 242.97 53.95 243.33 36.82C242.65 18.91 266.18 9.85 276 25.84Z" fill="#F7BECA"/>
<path d="M289.36 54H280.36V4.84H289.36V35.84L302.74 18.84H313.06L301.39 33.57L313.06 54H302.74L295.61 41.22L289.36 49.5V54Z" fill="#F7BECA"/>
<path d="M329.53 45.43C331.498 45.9521 333.587 45.7533 335.421 44.8693C337.255 43.9853 338.713 42.4746 339.53 40.61L346.22 47.26C336.34 61.72 312.93 53.68 313.68 36.13C312.82 18.38 336.48 10.66 346.39 25.13L329.53 45.43ZM334.13 26.93C326.08 24.34 320.24 33.85 323.68 40.8L334.13 26.93Z" fill="#F7BECA"/>
<path d="M368.51 54C364.348 53.9817 360.361 52.3229 357.415 49.3837C354.468 46.4445 352.799 42.4619 352.77 38.3V27.85H348.4V18.91H352.77V4.84H361.71V18.91H375.32V27.85H361.71C362.21 33.6 359.65 42.04 365.85 44.56C367.59 45.56 373.37 44.96 375.32 45.1V54H368.51Z" fill="#F7BECA"/>
<path d="M399.67 54H379.16V45.1H399.67C401.37 45.29 402.83 42.56 401.25 41.62C397.49 40.62 389.55 42.29 385.97 40.44C377.06 36.99 376.97 23.19 385.97 19.78C388.74 18.12 405.23 19.19 408.51 18.91V27.85H390.34C387.43 27.8 387.44 32.42 390.34 32.38C393.44 32.56 401.19 31.84 404.01 33.16C415.38 37.18 411.3 54.33 399.67 54Z" fill="#F7BECA"/>
<path d="M32.28 0.0799942L37.44 7.93999V18.91L32.28 11.04V0.0799942Z" fill="#29314D"/>
<path d="M0 40.41L5.16 48.27L8.96 34.83L0 29.45V40.41Z" fill="#29314D"/>
<path d="M37.44 67.6L32.28 59.73V70.73L37.44 78.6V67.6Z" fill="#29314D"/>
<path d="M435.33 17.95L429.42 11.89V0.93L435.33 6.99V17.95Z" fill="#29314D"/>
<path d="M461.7 30.29L467.61 36.35V47.31L461.7 41.25V30.29Z" fill="#29314D"/>
<path d="M429.42 71.58L435.33 77.64V66.64L429.42 60.58V71.58Z" fill="#29314D"/>
<path d="M5.15997 37.31C7.94997 37.09 13.64 38.38 14.82 34.89C15.1356 34.1097 15.3149 33.281 15.35 32.44C15.85 26.16 13.49 15.44 18.63 11.06C22.51 6.48 32.23 8.26 37.44 7.94V18.94H26.44C25.96 25.57 28.26 36.41 23.22 40.6C22.2906 41.522 21.199 42.2645 20 42.79C29 46.34 26 60.14 26.44 67.59H37.44V78.59C32.2 78.28 22.63 80 18.73 75.43C13.45 70.93 15.86 60.7 15.35 54C15.51 50.88 13.87 48.57 10.95 48.32H5.15997V37.31Z" fill="#29314D"/>
<path d="M0 29.45C2.79 29.23 8.48 30.52 9.66 27.03C9.98482 26.2521 10.1677 25.4224 10.2 24.58C10.69 18.3 8.33 7.58 13.47 3.2C17.35 -1.38 27.07 0.399997 32.28 0.0799974V11H21.28C20.8 17.63 23.1 28.47 18.06 32.67C17.1273 33.6003 16.0327 34.3526 14.83 34.89C23.83 38.44 20.83 52.24 21.28 59.69H32.28V70.69C27.04 70.37 17.47 72.12 13.57 67.52C8.29 63.02 10.7 52.79 10.2 46.04C10.35 42.92 8.72 40.62 5.79 40.36H0V29.45Z" fill="#F7BECA"/>
<path d="M467.61 47.31H461.78C458.83 47.48 457.12 50.13 457.37 52.99C456.87 59.76 459.28 69.99 454 74.48C450.13 79.06 440.51 77.34 435.33 77.64V66.64H446.33C446.83 59.19 443.77 45.37 452.77 41.84C451.569 41.2999 450.478 40.5441 449.55 39.61C444.55 35.45 446.81 24.52 446.33 17.95H435.33V7C440.57 7.33 450.19 5.54 454.09 10.12C459.24 14.51 456.88 25.21 457.37 31.49C457.403 32.3354 457.586 33.1683 457.91 33.95C459.06 37.45 464.84 36.14 467.61 36.36V47.31Z" fill="#29314D"/>
<path d="M461.7 41.25H455.88C452.88 41.42 451.21 44.07 451.47 46.93C450.96 53.7 453.38 63.93 448.09 68.42C444.23 73 434.61 71.28 429.42 71.58V60.58H440.42C440.91 53.13 437.85 39.3 446.86 35.78C445.658 35.2425 444.566 34.4864 443.64 33.55C438.64 29.39 440.9 18.46 440.42 11.89H429.42V0.929996C434.67 1.26 444.29 -0.530003 448.19 4.05C453.33 8.44 450.97 19.14 451.47 25.42C451.505 26.2642 451.684 27.0962 452 27.88C453.15 31.38 458.93 30.07 461.7 30.29V41.25Z" fill="#F7BECA"/>
</svg>
